<?xml version="1.0" standalone="no"?>
<!DOCTYPE svg PUBLIC "-//W3C//DTD SVG 1.1//EN" "http://www.w3.org/Graphics/SVG/1.1/DTD/svg11.dtd" >
<svg xmlns="http://www.w3.org/2000/svg">
<metadata></metadata>
<defs>
<font id="anfibiatextregular" horiz-adv-x="1613" >
<font-face units-per-em="2048" ascent="1597" descent="-451" />
<missing-glyph horiz-adv-x="409" />
<glyph horiz-adv-x="2048" />
<glyph horiz-adv-x="2048" />
<glyph unicode="&#xd;" horiz-adv-x="2048" />
<glyph unicode=" "  horiz-adv-x="409" />
<glyph unicode="&#x09;" horiz-adv-x="409" />
<glyph unicode="&#xa0;" horiz-adv-x="409" />
<glyph unicode="!" horiz-adv-x="550" d="M137 121q0 59 40 99t99 40q57 0 97.5 -40t40.5 -99t-40 -99t-98 -40q-59 0 -99 39.5t-40 99.5zM147 1434h256l-114 -1016h-27z" />
<glyph unicode="&#x22;" horiz-adv-x="843" d="M135 1386q16 29 44 48.5t65 19.5q39 0 66.5 -19.5t41.5 -48.5l-96 -507h-25zM492 1386q16 29 43.5 48.5t64.5 19.5q39 0 66.5 -19.5t42.5 -48.5l-97 -507h-24z" />
<glyph unicode="#" horiz-adv-x="1316" d="M82 424l14 80h303l62 424h-336l14 78h332l61 428h84l-61 -428h295l61 428h82l-61 -428h305l-16 -78h-299l-62 -424h334l-14 -80h-330l-62 -424h-81l61 424h-295l-61 -424h-84l61 424h-307zM483 504h295l62 424h-295z" />
<glyph unicode="$" horiz-adv-x="1214" d="M90 268q0 76 45 111t98 35q39 0 64 -15q-12 -20 -19.5 -41.5t-7.5 -50.5q0 -109 80 -176.5t221 -71.5v603l-43 12q-86 25 -157.5 57.5t-122.5 78.5t-80 108.5t-29 148.5q0 82 32 151.5t88 120t136 80t176 35.5v221h82v-223q90 -4 166 -24.5t130.5 -54.5t85 -79t30.5 -98 q0 -74 -44 -104.5t-99 -30.5q-33 0 -54 10q12 20 19.5 41t7.5 55q0 78 -61.5 135.5t-180.5 67.5v-541l84 -24q82 -25 150.5 -57.5t118 -81t77 -114t27.5 -153.5q0 -92 -37 -165.5t-100.5 -126t-145.5 -84t-174 -39.5v-234h-82v230q-109 2 -196.5 24.5t-151 61t-98.5 91 t-35 111.5zM297 1122q0 -59 17.5 -100t52 -71.5t86 -53.5t118.5 -43v516q-123 -10 -198.5 -74.5t-75.5 -173.5zM653 63q133 14 215 88t82 211q0 100 -57 161t-188 100l-52 14v-574z" />
<glyph unicode="%" horiz-adv-x="1900" d="M82 1081q0 86 29.5 155t81 117t119 74.5t145.5 26.5q63 0 114.5 -18.5t104.5 -40t118.5 -40t155.5 -18.5q104 0 207 30t168 106l45 -19l-768 -1454h-74l715 1352q-18 -16 -54 -28.5t-78 -22t-85 -13.5t-76 -4q-51 0 -107.5 7.5t-99.5 17.5q43 -41 67 -101.5t24 -126.5 q0 -86 -30 -154.5t-81 -116.5t-119.5 -74.5t-146.5 -26.5t-145.5 26.5t-119 74.5t-81 116.5t-29.5 154.5zM244 1081q0 -152 61.5 -227.5t151.5 -75.5q92 0 153.5 75.5t61.5 227.5q0 154 -61.5 228.5t-153.5 74.5q-90 0 -151.5 -74.5t-61.5 -228.5zM1069 352q0 86 29.5 154.5 t81 117t119 75t145.5 26.5q76 0 144.5 -26.5t119.5 -75t81 -117t30 -154.5t-30 -154.5t-81 -116.5t-119.5 -74.5t-144.5 -26.5q-78 0 -145.5 26.5t-119 74.5t-81 116.5t-29.5 154.5zM1231 352q0 -152 61.5 -227.5t151.5 -75.5t152.5 75t62.5 228q0 152 -62.5 227.5 t-152.5 75.5t-151.5 -74.5t-61.5 -228.5z" />
<glyph unicode="&#x26;" horiz-adv-x="1503" d="M100 352q0 125 92.5 222.5t270.5 158.5l-86 88q-66 66 -106 137.5t-40 157.5q0 84 33 147.5t87.5 105.5t127 63.5t152.5 21.5q94 0 167.5 -24.5t124 -66.5t76 -99.5t25.5 -122.5q0 -70 -28.5 -127.5t-76 -103.5t-111 -80.5t-130.5 -57.5l418 -428q63 109 75 236 q4 39 -1 62.5t-22.5 41.5t-48 36.5t-79.5 45.5v14h395v-14q-45 -27 -71.5 -45.5t-41 -37.5t-21.5 -43t-15 -60q-16 -80 -45 -153t-70 -138l115 -117q31 -31 57.5 -53.5t54 -40t57 -32.5t64.5 -30v-16h-311l-150 152q-90 -80 -205.5 -126t-259.5 -46q-98 0 -184 23.5 t-150.5 70.5t-101.5 116.5t-37 161.5zM291 369q0 -63 25.5 -116.5t70.5 -91.5t106.5 -59.5t133.5 -21.5q100 0 191 33.5t163 95.5l-481 489q-113 -63 -161 -146t-48 -183zM399 1163q0 -66 35 -122t90 -113l115 -119q100 49 160.5 133t60.5 203q0 100 -62.5 166.5 t-166.5 66.5q-111 0 -171.5 -60.5t-60.5 -154.5z" />
<glyph unicode="'" horiz-adv-x="487" d="M135 1386q16 29 44 48.5t65 19.5q39 0 66.5 -19.5t41.5 -48.5l-96 -507h-25z" />
<glyph unicode="(" horiz-adv-x="722" d="M135 608q0 160 34 298t94.5 255t145.5 211t187 162h53q-82 -72 -145.5 -170t-107.5 -218t-66.5 -256t-22.5 -282q0 -145 22.5 -281.5t66.5 -255t107.5 -218t145.5 -170.5h-53q-102 70 -187 163t-145.5 209.5t-94.5 254.5t-34 298z" />
<glyph unicode=")" horiz-adv-x="722" d="M74 -317q82 72 145.5 171t107.5 217.5t66.5 255t22.5 281.5t-22.5 281.5t-66.5 256.5t-107.5 218t-145.5 170h53q102 -68 187 -162t145.5 -211t94.5 -255t34 -298t-34 -298t-94.5 -254.5t-145.5 -210t-187 -162.5h-53z" />
<glyph unicode="*" horiz-adv-x="983" d="M102 1233l19 51l313 -72l31 322h53l31 -322l313 72l19 -51l-297 -129l166 -277l-43 -32l-215 243l-213 -243l-43 32l163 277z" />
<glyph unicode="+" horiz-adv-x="1224" d="M145 647v98h420v418h94v-418h420v-98h-420v-418h-94v418h-420z" />
<glyph unicode="," horiz-adv-x="522" d="M82 -246q117 23 177 92.5t52 180.5q-29 -20 -78 -21q-47 0 -79.5 34t-32.5 81q0 55 36 90t93 35q78 0 123 -55.5t45 -153.5q0 -68 -22.5 -129.5t-65.5 -107.5t-105.5 -74.5t-142.5 -30.5v59z" />
<glyph unicode="-" horiz-adv-x="714" d="M102 510v104h510v-104h-510z" />
<glyph unicode="." horiz-adv-x="524" d="M123 121q0 59 40 99t99 40q57 0 98 -40t41 -99t-41 -99t-98 -40q-59 0 -99 39.5t-40 99.5z" />
<glyph unicode="/" horiz-adv-x="806" d="M20 -313l615 1847h94l-614 -1847h-95z" />
<glyph unicode="0" horiz-adv-x="1331" d="M102 717q0 160 39 295t113 233t178.5 153.5t233.5 55.5t233.5 -55.5t177 -153.5t112.5 -233t40 -295t-40 -295t-112.5 -233.5t-177 -153.5t-233.5 -55t-233.5 55t-178.5 153.5t-113 233.5t-39 295zM309 717q0 -141 21.5 -260t64.5 -205t110.5 -134t160.5 -48 q92 0 158.5 48t109.5 134t64.5 205t21.5 260t-21.5 260t-64.5 205t-109.5 134t-158.5 48t-160 -48t-111 -134t-64.5 -205t-21.5 -260z" />
<glyph unicode="1" horiz-adv-x="765" d="M63 1411v23h416v-1241q0 -39 11.5 -63t36 -40t65.5 -30.5t102 -34.5v-25h-612v25q63 20 104 34.5t65.5 30.5t35 40t10.5 63v1042q0 39 -10.5 61.5t-37 40t-71.5 33.5t-115 41z" />
<glyph unicode="2" horiz-adv-x="1169" d="M39 0v12l266 285q82 86 170 178t161 190.5t120 200t47 203.5q0 139 -69.5 221t-203.5 82q-63 0 -109 -20.5t-77 -56t-46 -84t-15 -101.5q0 -129 63 -192q-25 -10 -63 -11q-78 0 -129.5 54.5t-51.5 148.5q0 68 31 130.5t86 110.5t134 75.5t177 27.5q106 0 193.5 -28.5 t149 -81t95 -127t33.5 -164.5q0 -109 -46 -203t-139 -194.5t-234.5 -219.5t-331.5 -278l432 2q78 0 130 5t91 24.5t73 58.5t75 106h20l-45 -354h-987z" />
<glyph unicode="3" horiz-adv-x="1200" d="M98 305q0 90 50.5 141.5t130.5 51.5q23 0 40 -4.5t31 -10.5q-29 -35 -43 -70.5t-14 -88.5q0 -125 76.5 -195t208.5 -70q139 0 228 82t89 252q0 164 -96.5 257t-288.5 93v60q92 2 157.5 24.5t106.5 61.5t59.5 92t18.5 117q0 125 -68.5 199.5t-193.5 74.5 q-123 0 -185.5 -67.5t-62.5 -171.5q0 -66 15.5 -107t45.5 -70q-10 -4 -25.5 -6t-31.5 -2q-78 0 -130 49.5t-52 141.5q0 61 28.5 117.5t84 100.5t134 70.5t179.5 26.5q94 0 177 -22.5t143.5 -66.5t95 -111.5t34.5 -155.5q0 -72 -29.5 -129.5t-78.5 -98.5t-112.5 -64.5 t-131.5 -27.5v-4q98 -6 174 -39t128 -84t80 -117.5t28 -140.5q0 -104 -41 -182t-112 -129t-164.5 -76.5t-202.5 -25.5q-102 0 -190.5 24.5t-153 67.5t-100.5 102t-36 131z" />
<glyph unicode="4" horiz-adv-x="1306" d="M29 393v10l737 1031h154v-957h96q49 0 78.5 4t50 16.5t36 34t36.5 54.5h14v-301h-14q-20 33 -36 54t-36.5 33.5t-50 16.5t-78.5 4h-96v-170q0 -51 6 -81.5t19 -52t36 -38t55 -37.5v-14h-411v14q33 20 55 37t35.5 38.5t19.5 52t6 81.5v170h-712zM186 477h555v791z" />
<glyph unicode="5" horiz-adv-x="1159" d="M66 303q0 92 49 142.5t127 50.5q47 0 75 -15q-27 -31 -42 -67.5t-15 -94.5q0 -125 70.5 -191.5t193.5 -66.5q156 0 243 107.5t87 282.5q0 168 -76 264t-233 96q-104 0 -185 -40t-141 -95h-8l90 760q111 -16 212 -26.5t194 -10.5q106 0 177.5 15.5t133.5 74.5h8 q0 -135 -62.5 -209t-224.5 -74q-53 0 -106 5.5t-103.5 12.5t-93.5 16t-74 15l-53 -436q47 35 124 61.5t167 26.5q88 0 171 -26.5t146.5 -82t102.5 -139.5t39 -200q0 -113 -44 -202t-119 -150.5t-171 -94t-201 -32.5q-104 0 -188 24.5t-144.5 67.5t-93 102t-32.5 129z" />
<glyph unicode="6" horiz-adv-x="1206" d="M102 666q0 164 37 307t111 250.5t183.5 169t254.5 61.5q88 0 161 -20.5t125 -56.5t79.5 -86t27.5 -109q0 -80 -47 -118t-110 -38q-31 0 -56 14q20 23 30.5 56.5t12.5 72.5q4 86 -54 145.5t-169 59.5q-104 0 -180 -53t-125 -150.5t-72.5 -230.5t-23.5 -293q14 51 48 97.5 t81 80t107.5 54t129.5 20.5q96 0 179 -29.5t143.5 -87t95.5 -142.5t35 -194q0 -102 -37 -188t-102.5 -147.5t-153.5 -96t-192 -34.5q-131 0 -228.5 53t-162 145t-96.5 217t-32 271zM326 436q0 -172 77.5 -273.5t214.5 -101.5q139 0 217 101.5t78 273.5q0 170 -77.5 271.5 t-217.5 101.5q-137 0 -214.5 -101.5t-77.5 -271.5z" />
<glyph unicode="7" horiz-adv-x="1095" d="M82 1071v363h1003v-9l-178 -266q-166 -246 -247.5 -532.5t-92.5 -610.5l-211 -36q20 180 61.5 338.5t103 304t141 282.5t176.5 273l61 88h-530q-55 0 -96.5 -11.5t-72 -34t-54 -60.5t-44.5 -89h-20z" />
<glyph unicode="8" horiz-adv-x="1220" d="M102 360q0 68 27 125.5t73 103.5t107.5 79.5t128.5 52.5q-53 25 -99 57.5t-80 76.5t-54.5 99.5t-20.5 124.5q0 84 33 154t91.5 119t136 75.5t169.5 26.5q88 0 166 -23.5t134.5 -67.5t89 -106.5t32.5 -138.5t-26.5 -131t-69.5 -95t-94.5 -65t-100.5 -39q94 -35 165 -75.5 t117 -90t68.5 -109.5t22.5 -136q0 -86 -35.5 -160t-102.5 -126t-158 -81.5t-201 -29.5q-111 0 -205 25.5t-164 73.5t-110 118.5t-40 162.5zM276 375q0 -74 26 -132.5t72 -98.5t109.5 -61.5t137.5 -21.5q63 0 121.5 18.5t103.5 53.5t70.5 85t25.5 116q0 104 -69.5 171.5 t-182.5 112.5l-213 84q-86 -49 -143.5 -129.5t-57.5 -197.5zM354 1122q0 -104 58.5 -163.5t158.5 -100.5l134 -55q70 45 119.5 119.5t49.5 191.5t-71.5 187.5t-188.5 70.5t-188.5 -67.5t-71.5 -182.5z" />
<glyph unicode="9" horiz-adv-x="1206" d="M100 987q0 102 37 188.5t102.5 147.5t153.5 96t193 35q131 0 228 -53t161.5 -145.5t96.5 -218.5t32 -269q0 -164 -38 -307.5t-111.5 -251t-183 -168.5t-253.5 -61q-90 0 -161.5 20t-124 56t-80 86.5t-27.5 109.5q0 80 47 118t111 38q31 0 55 -15q-20 -23 -30.5 -56.5 t-12.5 -72.5q-4 -86 54 -145.5t169 -59.5q104 0 180 53.5t125 150.5t73 230.5t24 292.5q-16 -51 -49 -97t-80.5 -80t-107.5 -54t-130 -20q-96 0 -179 29.5t-143.5 87t-95.5 142.5t-35 193zM293 997q0 -170 78 -271t217 -101q137 0 215 101t78 271q0 172 -78 273.5 t-215 101.5q-139 0 -217 -101.5t-78 -273.5z" />
<glyph unicode=":" horiz-adv-x="524" d="M123 121q0 59 40 99t99 40q57 0 98 -40t41 -99t-41 -99t-98 -40q-59 0 -99 39.5t-40 99.5zM123 768q0 59 40 99t99 40q57 0 98 -40t41 -99t-41 -99t-98 -40q-59 0 -99 40t-40 99z" />
<glyph unicode=";" horiz-adv-x="522" d="M82 -246q117 23 177 92.5t52 180.5q-29 -20 -78 -21q-47 0 -79.5 34t-32.5 81q0 55 36 90t93 35q78 0 123 -55.5t45 -153.5q0 -68 -22.5 -129.5t-65.5 -107.5t-105.5 -74.5t-142.5 -30.5v59zM123 768q0 59 40 99t99 40q57 0 98 -40t41 -99t-41 -99t-98 -40q-59 0 -99 40 t-40 99z" />
<glyph unicode="&#x3c;" horiz-adv-x="968" d="M137 637v115l711 397v-115l-617 -342l617 -338v-116z" />
<glyph unicode="=" horiz-adv-x="1277" d="M172 510v96h934v-96h-934zM172 782v97h934v-97h-934z" />
<glyph unicode="&#x3e;" horiz-adv-x="968" d="M119 238v116l618 338l-618 342v115l712 -397v-115z" />
<glyph unicode="?" horiz-adv-x="1021" d="M88 1157q0 57 29.5 110.5t85 94.5t132.5 66.5t173 25.5q100 0 179 -29.5t133 -80t83 -119t29 -144.5q0 -90 -33 -163.5t-90 -130t-134 -98.5t-165 -66v-211h-78v370q72 14 133.5 42t107.5 69t72.5 96t26.5 127q0 53 -16.5 100.5t-50 82t-83.5 55t-116 20.5 q-121 0 -183.5 -67.5t-62.5 -165.5q0 -41 14.5 -79t36.5 -61q-10 -6 -28.5 -11t-34.5 -5q-72 0 -116 43t-44 129zM334 121q0 59 40 99t99 40q57 0 97 -40t40 -99t-40 -99t-97 -40q-59 0 -99 39.5t-40 99.5z" />
<glyph unicode="@" horiz-adv-x="1982" d="M139 428q0 197 72 362.5t195.5 284.5t288.5 185.5t352 66.5q160 0 305 -47t256.5 -137t177 -222.5t65.5 -302.5q0 -154 -41 -263t-105.5 -177.5t-141 -101.5t-150.5 -33q-111 0 -183.5 54.5t-72.5 160.5q-43 -92 -122 -153.5t-183 -61.5q-121 0 -200 81t-79 224 q0 106 37 204.5t99.5 172.5t147.5 118t183 44q100 0 158.5 -47t73.5 -113q14 23 35.5 47.5t45 47t45 40t38.5 25.5h18l-139 -568q-23 -96 13 -140t110 -44q51 0 107.5 26.5t102.5 85t75.5 150.5t29.5 221q0 154 -56.5 271t-153.5 196.5t-225 119.5t-271 40 q-156 0 -296.5 -61.5t-247 -170t-169 -259t-62.5 -328.5q0 -168 56.5 -305t158 -234.5t241.5 -150.5t306 -53q193 0 348.5 46t298.5 160l27 -45q-125 -129 -302 -185t-372 -56q-193 0 -356.5 57t-283.5 164.5t-187.5 260.5t-67.5 343zM752 348q0 -98 42 -151.5t107 -53.5 q96 0 167 81t103 212l25 105q33 133 -11 195.5t-124 62.5q-61 0 -117.5 -38t-99.5 -100.5t-67.5 -143.5t-24.5 -169z" />
<glyph unicode="A" horiz-adv-x="1556" d="M16 0v16q33 25 58.5 44.5t45 42t38 53t41.5 77.5l573 1225h10l574 -1225q23 -47 40 -77.5t35.5 -53t41 -42t57.5 -44.5v-16h-447v16q66 29 89.5 50.5t23.5 54.5q0 20 -6 38.5t-23 49.5l-123 264h-630l-119 -262q-14 -29 -19.5 -48.5t-5.5 -37.5q0 -33 32 -54.5t99 -54.5 v-16h-385zM453 557h553l-279 600z" />
<glyph unicode="B" horiz-adv-x="1353" d="M98 0v16q37 20 60.5 37t39 39.5t21.5 54t6 82.5v975q0 51 -6 83t-21.5 54.5t-39 39t-60.5 36.5v17h598q111 0 205 -19.5t163 -62.5t107.5 -113t38.5 -168q0 -72 -28.5 -131t-78.5 -102t-115.5 -68t-139.5 -29v-4q86 -4 162.5 -26.5t134 -65.5t91.5 -107.5t34 -150.5 q0 -102 -38 -175t-107.5 -120t-166 -69.5t-213.5 -22.5h-647zM412 80h303q160 0 260 72.5t100 236.5t-104.5 235.5t-284.5 71.5h-274v-616zM412 774h256q72 0 135 14.5t110.5 48t75 90t27.5 140.5q0 150 -93.5 218.5t-250.5 68.5h-260v-580z" />
<glyph unicode="C" horiz-adv-x="1462" d="M96 717q0 162 55.5 297t151.5 233.5t229.5 152.5t286.5 54q123 0 213 -32.5t152 -80.5l104 113h17v-432h-19q-41 72 -87 134.5t-101.5 108.5t-121 72.5t-147.5 26.5q-117 0 -212 -46t-164.5 -131t-107.5 -202t-38 -258q0 -150 44 -266.5t118 -196.5t172 -121t207 -41 q162 0 280.5 75t202.5 251l35 -14q-25 -98 -74 -178t-121.5 -137.5t-166 -88t-203.5 -30.5q-156 0 -286 54t-223 151.5t-144.5 232.5t-51.5 299z" />
<glyph unicode="D" horiz-adv-x="1550" d="M96 0v16q37 20 61.5 37t40 39.5t21.5 54t6 82.5v975q0 51 -6 83t-21.5 54.5t-40 39t-61.5 36.5v17h559q186 0 335 -50.5t251 -143.5t157.5 -225t55.5 -296q0 -168 -55.5 -301t-157.5 -226.5t-248.5 -142.5t-326.5 -49h-570zM412 82h235q293 0 446.5 169t153.5 468 q0 143 -39 261t-115.5 200t-190.5 127t-261 45h-229v-1270z" />
<glyph unicode="E" horiz-adv-x="1347" d="M96 0v16q37 20 61.5 37t40 39.5t21.5 54t6 82.5v975q0 51 -6 83t-21.5 54.5t-40 39t-61.5 36.5v17h920q47 0 73.5 4t49.5 8l69 -326h-16q-49 57 -89 101.5t-84 74t-102.5 44t-146.5 14.5h-358v-578h295q61 0 101 6t67.5 25.5t48 58.5t47.5 107h18v-473h-18 q-27 68 -47.5 106.5t-48 59t-67.5 25.5t-101 5h-295v-616h405q84 0 144.5 14.5t108.5 46t91 83.5t92 126h17l-66 -350h-1108z" />
<glyph unicode="F" horiz-adv-x="1271" d="M96 0v16q37 20 61.5 37t40 39.5t21.5 54t6 82.5v975q0 51 -6 83t-21.5 54.5t-40 39t-61.5 36.5v17h920q47 0 73.5 4t49.5 8l69 -326h-16q-49 57 -89 101.5t-84 74t-102.5 44t-146.5 14.5h-358v-604h295q61 0 101 5t67.5 25.5t48 59.5t47.5 106h18v-473h-18 q-27 68 -47.5 106.5t-48 58t-67.5 26t-101 6.5h-295v-441q0 -49 10 -81.5t32.5 -55t56.5 -39t81 -37.5v-16h-496z" />
<glyph unicode="G" horiz-adv-x="1595" d="M96 709q0 164 56.5 301t156 235t236.5 153.5t299 55.5q125 0 220 -32.5t159 -80.5l110 113h15v-428h-17q-43 72 -92 134.5t-106.5 108.5t-126 71.5t-152.5 25.5q-121 0 -221.5 -47t-172 -133t-111.5 -206t-40 -265q0 -143 40 -259t113 -198t175 -126t225 -44 q113 0 206 41t161 133v193q0 51 -7.5 82.5t-22.5 53t-39.5 39t-61.5 38.5v16h448v-16q-37 -20 -62.5 -38t-41 -39.5t-22.5 -53t-7 -82.5v-473h-47l-109 204q-59 -92 -175.5 -149t-268.5 -57q-156 0 -287 53t-226 149.5t-149.5 230.5t-54.5 296z" />
<glyph unicode="H" horiz-adv-x="1683" d="M96 0v16q37 20 61.5 37t40 39.5t21.5 54t6 82.5v975q0 51 -6 83t-21.5 54.5t-40 39t-61.5 36.5v17h447v-17q-37 -20 -61.5 -36.5t-40 -39t-22.5 -54.5t-7 -83v-426h858v426q0 51 -6.5 83t-21.5 54.5t-39.5 39t-61.5 36.5v17h446v-17q-37 -20 -61.5 -36.5t-40 -39 t-22.5 -54.5t-7 -83v-975q0 -51 7 -82.5t22.5 -54t40 -39t61.5 -37.5v-16h-446v16q37 20 61.5 37t39.5 39.5t21.5 54t6.5 82.5v465h-858v-465q0 -51 7 -82.5t22.5 -54t40 -39t61.5 -37.5v-16h-447z" />
<glyph unicode="I" horiz-adv-x="638" d="M96 0v16q37 20 61.5 37t40 39.5t21.5 54t6 82.5v975q0 51 -6 83t-21.5 54.5t-40 39t-61.5 36.5v17h447v-17q-37 -20 -61.5 -36.5t-40 -39t-22.5 -54.5t-7 -83v-975q0 -51 7 -82.5t22.5 -54t40 -39t61.5 -37.5v-16h-447z" />
<glyph unicode="J" horiz-adv-x="1179" d="M57 340q0 92 56.5 147.5t136.5 55.5q63 0 100 -33q-45 -29 -73.5 -75t-28.5 -124q0 -111 72.5 -181.5t189.5 -70.5q152 0 218.5 104.5t66.5 278.5v762q0 51 -7.5 83t-22.5 54.5t-40 39t-61 36.5v17h446v-17q-37 -20 -61.5 -36.5t-40 -39t-21.5 -54.5t-6 -83v-772 q0 -109 -36 -192.5t-98.5 -141t-149.5 -88t-187 -30.5q-98 0 -182 27.5t-143.5 76.5t-93.5 114.5t-34 141.5z" />
<glyph unicode="K" horiz-adv-x="1501" d="M96 0v16q37 20 61.5 37t40 39.5t21.5 54t6 82.5v975q0 51 -6 83t-21.5 54.5t-40 39t-61.5 36.5v17h447v-17q-37 -20 -61.5 -36.5t-40 -39t-22.5 -54.5t-7 -83v-530l624 581q41 41 41 76q0 25 -24.5 44.5t-63.5 41.5v17h424v-17q-51 -25 -93 -48t-79 -49t-70.5 -54.5 t-70.5 -61.5l-393 -364l516 -611q66 -78 128 -131t128 -82v-16h-455v16q27 16 45 30.5t18 37.5t-11 40t-38 52l-465 545l-161 -146v-346q0 -51 7 -82.5t22.5 -54t40 -39t61.5 -37.5v-16h-447z" />
<glyph unicode="L" horiz-adv-x="1290" d="M96 0v16q37 20 61.5 37t40 39.5t21.5 54t6 82.5v975q0 51 -6 83t-21.5 54.5t-40 39t-61.5 36.5v17h447v-17q-37 -20 -61.5 -36.5t-40 -39t-22.5 -54.5t-7 -83v-1124h354q84 0 143.5 16.5t108.5 53t95 97t104 150.5h16l-76 -397h-1061z" />
<glyph unicode="M" horiz-adv-x="1886" d="M74 0v16q37 20 64.5 37t47 40.5t29.5 55t10 82.5v973q0 51 -6 83t-21.5 54.5t-40 39t-61.5 36.5v17h383l486 -1121l471 1121h354v-17q-37 -20 -61.5 -36.5t-40 -39t-21.5 -54.5t-6 -83v-975q0 -51 6 -82.5t21.5 -54t40 -39t61.5 -37.5v-16h-444v16q37 20 61.5 37 t39.5 39.5t21.5 54t6.5 82.5v1074l-568 -1326h-8l-573 1326v-1072q0 -51 10 -82.5t29.5 -55t48 -40t65.5 -37.5v-16h-405z" />
<glyph unicode="N" horiz-adv-x="1597" d="M74 0v16q37 20 64.5 37t47 40.5t29.5 55t10 82.5v973q0 51 -6 83t-21.5 54.5t-40 39t-61.5 36.5v17h338l848 -1061v829q0 51 -10 83t-30.5 55.5t-48.5 40t-65 36.5v17h406v-17q-37 -20 -64.5 -36.5t-47 -40t-30 -55.5t-10.5 -83v-1218h-28l-1028 1280v-1033 q0 -51 10 -82.5t30.5 -55t48 -40t64.5 -37.5v-16h-405z" />
<glyph unicode="O" d="M96 717q0 162 53.5 297t148.5 233.5t225 152.5t284 54t284 -54t225 -152.5t148.5 -233.5t53.5 -297t-53.5 -297t-148.5 -233.5t-225 -152.5t-284 -54t-284 54t-225 152.5t-148.5 233.5t-53.5 297zM307 717q0 -145 34 -264t98.5 -204t157.5 -131t210 -46t209 46t156.5 131 t99.5 204t35 264t-35 264t-99.5 204t-156.5 131t-209 46t-210 -46t-157.5 -131t-98.5 -204t-34 -264z" />
<glyph unicode="P" horiz-adv-x="1318" d="M96 0v16q37 20 61.5 37t40 39.5t21.5 54t6 82.5v975q0 51 -6 83t-21.5 54.5t-40 39t-61.5 36.5v17h621q125 0 225 -26t171 -78t109 -130t38 -184q0 -104 -39 -183t-110 -130.5t-171 -77t-223 -25.5h-305v-371q0 -49 10 -81.5t32.5 -55t56.5 -39t81 -37.5v-16h-496z M412 680h270q190 0 285.5 81t95.5 255q0 176 -95.5 257t-285.5 81h-270v-674z" />
<glyph unicode="Q" d="M96 717q0 162 53.5 297t148.5 233.5t225 152.5t284 54t284 -54t225 -152.5t148.5 -233.5t53.5 -297q0 -221 -96.5 -389t-260.5 -260q39 -78 87 -132.5t122 -54.5q43 0 79 20.5t64 75.5h25q-16 -117 -80.5 -170t-150.5 -53q-53 0 -96.5 20.5t-77 56.5t-61.5 82t-52 97 q-95 -30 -206 -30h-7q-154 0 -284 54t-225 152.5t-148.5 233.5t-53.5 297zM307 717q0 -182 53.5 -320.5t151.5 -222.5q6 59 25.5 113.5t55.5 95.5t86 65.5t116 24.5q61 0 107 -25.5t83 -66.5t66.5 -94.5t56.5 -108.5q96 84 147.5 221.5t51.5 317.5q0 145 -35 264t-99.5 204 t-156.5 131t-209 46t-210 -46t-157.5 -131t-98.5 -204t-34 -264zM569 133q51 -29 110.5 -45t127.5 -16q92 0 172 30q-25 53 -48.5 103.5t-51 88.5t-61.5 61.5t-77 23.5q-76 0 -124 -69.5t-48 -176.5z" />
<glyph unicode="R" horiz-adv-x="1476" d="M96 0v16q37 20 61.5 37t40 39.5t21.5 54t6 82.5v975q0 51 -6 83t-21.5 54.5t-40 39t-61.5 36.5v17h649q111 0 208.5 -20.5t170 -64.5t114.5 -117t42 -177q0 -96 -36 -164t-96.5 -112t-136 -64.5t-155.5 -20.5v-6q137 -16 210 -81.5t110 -178.5l59 -172q18 -55 39.5 -92 t49.5 -63.5t63.5 -46t80.5 -38.5v-16h-325q-16 31 -26.5 55.5l-21 49t-20.5 52t-22 64.5l-68 197q-20 59 -43.5 103t-57.5 74t-82 44t-122 14h-268v-424q0 -51 7 -82.5t22.5 -54t40 -39t61.5 -37.5v-16h-447zM412 735h301q74 0 140.5 15.5t115.5 52.5t78.5 97.5t29.5 152.5 q0 80 -26.5 137t-74.5 94t-115.5 53.5t-147.5 16.5h-301v-619z" />
<glyph unicode="S" horiz-adv-x="1234" d="M104 432h27q92 -180 207 -271t278 -91q154 0 240 75.5t86 212.5q0 104 -62.5 170t-179.5 97l-188 51q-90 25 -159.5 57.5t-118 79.5t-74 109.5t-25.5 146.5q0 86 34 157.5t94.5 122t145.5 78t187 27.5q115 0 201 -32.5t139 -61.5l90 94h16l2 -410h-20q-45 76 -88 137.5 t-92 102.5t-109.5 63.5t-138.5 22.5q-61 0 -113.5 -16.5t-91.5 -48t-61.5 -77.5t-22.5 -104q0 -117 72 -178t205 -96l176 -47q84 -23 149.5 -55.5t111.5 -81t69.5 -114t23.5 -155.5q0 -104 -41 -182t-109.5 -130t-158.5 -78.5t-189 -26.5q-123 0 -223 38.5t-153 77.5 l-93 -116h-18z" />
<glyph unicode="T" horiz-adv-x="1501" d="M59 1061l68 385q23 -4 49.5 -8t73.5 -4h1001q47 0 74 4t49 8l68 -385h-19q-45 68 -82.5 122t-78.5 93t-92.5 60.5t-122.5 21.5h-203v-1127q0 -51 7 -82.5t24.5 -55t46 -40t71.5 -37.5v-16h-483v16q43 20 70.5 37t45 40.5t24.5 55t7 82.5v1127h-200q-72 0 -124 -21.5 t-93 -60.5t-79 -93.5t-83 -121.5h-19z" />
<glyph unicode="U" horiz-adv-x="1554" d="M68 1417v17h448v-17q-37 -20 -61.5 -36.5t-40 -39t-22.5 -54.5t-7 -83v-631q0 -244 110.5 -364.5t309.5 -120.5q100 0 183 27.5t141.5 86t91 150.5t32.5 219v631q0 51 -10 83t-30.5 55.5t-49 40t-65.5 36.5v17h407v-17q-37 -20 -64.5 -36.5t-46 -40t-28.5 -55.5t-10 -83 v-653q0 -141 -42 -247.5t-118 -178.5t-178.5 -107.5t-224.5 -35.5q-152 0 -263.5 39.5t-185.5 114.5t-109.5 180.5t-35.5 234.5v655q0 51 -7.5 83t-22.5 54.5t-40 39t-61 36.5z" />
<glyph unicode="V" horiz-adv-x="1523" d="M25 1417v17h446v-17q-63 -29 -87 -50t-24 -54q0 -20 7.5 -39t19.5 -49l420 -942l416 938q14 31 18 44t4 33q0 33 -31.5 57.5t-99.5 61.5v17h385v-17q-35 -25 -58.5 -44t-42 -41.5t-37 -54.5t-38.5 -77l-557 -1220h-10l-557 1220q-20 45 -38 77t-36.5 54.5t-43 42 t-56.5 43.5z" />
<glyph unicode="W" horiz-adv-x="2039" d="M25 1417v17h436v-17q-61 -29 -86 -50t-25 -54q0 -20 6 -42t17 -50l307 -879l287 897q-27 66 -57.5 101.5t-90.5 76.5v17h434v-17q-61 -29 -88.5 -50t-27.5 -54q0 -20 5 -42t15 -50l295 -891l295 887q10 29 13 45t3 34q0 35 -32.5 59.5t-98.5 61.5v17h387v-17 q-35 -25 -60.5 -44t-46 -42.5t-37.5 -54.5t-32 -76l-422 -1220h-18l-387 1120l-371 -1120h-18l-432 1220q-16 45 -33 77t-36.5 54.5t-44 42t-56.5 43.5z" />
<glyph unicode="X" horiz-adv-x="1503" d="M23 0v16q37 23 67.5 45.5t58 48t53 56.5t56.5 67l393 504l-358 467q-55 74 -103.5 121t-119.5 92v17h438v-17q-35 -25 -46 -44t-11 -46q0 -25 11 -49.5t34 -52.5l276 -361l275 359q23 29 33 51t10 47q0 27 -19.5 46t-58.5 50v17h362v-17q-72 -45 -123 -93t-104 -120 l-322 -411l432 -564q55 -74 103.5 -121t120.5 -92v-16h-439v16q35 25 46.5 44.5t11.5 45.5q0 25 -11.5 49.5t-33.5 53.5l-350 457l-347 -451q-25 -33 -34 -53.5t-9 -42.5q0 -27 18.5 -49.5t59.5 -53.5v-16h-370z" />
<glyph unicode="Y" horiz-adv-x="1384" d="M25 1417v17h417v-17q-41 -25 -54 -45t-13 -49q0 -47 31 -92l335 -533l334 533q16 25 22.5 46t6.5 34q0 29 -27.5 52t-77.5 54v17h361v-17q-31 -23 -55.5 -44t-46 -45.5t-43 -54.5t-46.5 -69l-385 -606v-369q0 -51 7.5 -82.5t25 -54t45 -39t70.5 -37.5v-16h-479v16 q43 20 70.5 37t45 39.5t24.5 54t7 82.5v369l-385 606q-25 39 -46.5 69t-43 54.5t-46 46t-54.5 43.5z" />
<glyph unicode="Z" horiz-adv-x="1429" d="M94 0v8l944 1344h-467q-86 0 -142 -17.5t-99 -52.5t-79 -87t-81 -122h-23l50 373q23 -4 49 -8t73 -4h986v-9l-940 -1343h505q84 0 143.5 14.5t108.5 48t93.5 88t97.5 132.5h20l-65 -365h-1174z" />
<glyph unicode="[" horiz-adv-x="665" d="M168 -315v1849h424v-31l-279 -59v-1667l279 -62v-30h-424z" />
<glyph unicode="\" horiz-adv-x="811" d="M78 1534h94l614 -1847h-94z" />
<glyph unicode="]" horiz-adv-x="665" d="M74 -285l278 62v1667l-278 59v31h424v-1849h-424v30z" />
<glyph unicode="^" horiz-adv-x="1044" d="M102 721l416 733h8l416 -733h-111l-309 549l-309 -549h-111z" />
<glyph unicode="_" horiz-adv-x="983" d="M102 -147h779v-93h-779v93z" />
<glyph unicode="`" horiz-adv-x="1024" d="M330 1534h227l137 -385h-39z" />
<glyph unicode="a" horiz-adv-x="1110" d="M92 233q0 82 40 137.5t107.5 92.5t154.5 60.5t179 39.5l164 29v78q0 143 -52 204.5t-173 61.5q-92 0 -143.5 -42t-51.5 -116q0 -35 10.5 -57.5t26.5 -42.5q-16 -14 -43.5 -22.5t-56.5 -8.5q-51 0 -83 30t-32 89q0 49 28 94t79 80t124.5 55.5t166.5 20.5q385 0 385 -340 q0 -137 -3.5 -251t-3.5 -208q0 -88 48.5 -125t152.5 -45v-27q-35 -12 -82 -23t-100 -11q-94 0 -141.5 52t-51.5 165q-35 -98 -131 -160.5t-223 -62.5q-61 0 -115.5 16t-94.5 48t-62.5 79t-22.5 110zM281 254q0 -86 48 -127t132 -41q49 0 98 20.5t89 62.5t64.5 103.5 t24.5 143.5v106l-149 -30q-150 -29 -228.5 -80.5t-78.5 -157.5z" />
<glyph unicode="b" horiz-adv-x="1261" d="M47 1520v14h320v-784q18 55 51 103t80 85t106.5 57.5t130.5 20.5q94 0 175 -34t140.5 -97.5t93.5 -157.5t34 -213q0 -123 -38 -222t-102.5 -168t-149.5 -106.5t-181 -37.5q-70 0 -128.5 17t-105.5 45t-81 64.5t-52 77.5q-16 -68 -59 -121t-97 -83h-24q20 92 23 205.5 t3 248.5v887q0 43 -10 71.5t-28.5 51t-44 40t-56.5 36.5zM367 399q0 -82 27.5 -141t70.5 -98t96 -58.5t105 -19.5q141 0 229 112.5t88 319.5q0 178 -83 284.5t-228 106.5q-70 0 -126.5 -30.5t-96 -81t-61 -118t-21.5 -140.5v-136z" />
<glyph unicode="c" horiz-adv-x="1042" d="M84 483q0 121 39 219.5t107.5 168t160.5 107.5t197 38q78 0 143.5 -18.5t113.5 -52.5t75.5 -79t27.5 -100q0 -37 -12 -60.5t-31.5 -39t-43 -21.5t-46.5 -6q-14 0 -29.5 3t-23.5 11q8 20 14 37t6 51q0 80 -46 136.5t-146 56.5q-74 0 -132.5 -33t-98.5 -90t-60 -134 t-20 -165q0 -199 89 -309.5t242 -110.5q109 0 192 56.5t128 175.5l39 -17q-35 -154 -139.5 -240.5t-272.5 -86.5q-98 0 -185 33.5t-150.5 98t-100.5 157.5t-37 214z" />
<glyph unicode="d" horiz-adv-x="1265" d="M84 485q0 121 38 219.5t101.5 167t147.5 106.5t176 38q141 0 226 -59.5t122 -139.5v504q0 43 -11.5 71.5t-29.5 51t-44 40t-54 36.5v14h319v-1311q0 -51 5 -81.5t18.5 -52t36 -38t55.5 -37.5v-14h-289l-6 246q-18 -55 -51 -103.5t-80 -84t-106.5 -57t-131.5 -21.5 q-94 0 -175 33.5t-140 98t-93 159t-34 214.5zM279 485q0 -180 81.5 -287.5t229.5 -107.5q70 0 126 31t96 81t61.5 117.5t21.5 141.5v135q0 82 -27.5 142.5t-70.5 99.5t-97.5 58t-105.5 19q-141 0 -228 -112.5t-87 -317.5z" />
<glyph unicode="e" horiz-adv-x="1085" d="M84 485q0 121 38 219.5t102.5 167t151.5 106.5t185 38q211 0 327 -131t116 -369h-728q0 -199 91.5 -312.5t255.5 -113.5q117 0 199.5 56.5t127.5 177.5l43 -15q-35 -158 -142.5 -243.5t-281.5 -85.5q-100 0 -188 33.5t-154.5 98t-104.5 159t-38 214.5zM281 594h530 q-2 66 -14.5 127t-41 108.5t-75.5 76t-121 28.5q-123 0 -193.5 -93t-84.5 -247z" />
<glyph unicode="f" horiz-adv-x="733" d="M66 907v56l143 41v143q0 186 106.5 290.5t284.5 104.5q61 0 114.5 -14.5t92.5 -40t61.5 -60t22.5 -77.5q0 -59 -38 -88t-91 -29q-16 0 -30.5 2t-24.5 6q10 20 15 47t5 51q0 53 -36 92t-107 39q-92 0 -144.5 -71.5t-52.5 -202.5v-205h297l-10 -84h-287v-698 q0 -45 10.5 -74t35 -48t63.5 -34.5t96 -34.5v-18h-500v14q33 20 55.5 37t36 38.5t19.5 52t6 81.5v684h-143z" />
<glyph unicode="g" horiz-adv-x="1171" d="M45 -186q0 86 72.5 142t201.5 75q-82 16 -140 57t-58 127q0 76 50 128t120 79q-70 45 -105.5 113.5t-35.5 150.5q0 68 25.5 128t74.5 105.5t121.5 71t169.5 25.5q92 0 162.5 -23.5t119.5 -64.5q41 53 95.5 98t119.5 45q57 0 92 -32.5t35 -86.5q0 -47 -33.5 -78.5 t-80.5 -31.5q0 41 -19.5 70.5t-62.5 29.5q-53 0 -105 -57q70 -82 70 -199q0 -68 -25.5 -128t-76 -105t-124 -71t-167.5 -26q-119 0 -205 41q-37 -18 -62.5 -45.5t-25.5 -64.5q0 -57 40 -80t122 -23h284q182 0 284.5 -70.5t102.5 -213.5q0 -90 -45 -158t-120.5 -113 t-175 -67.5t-205.5 -22.5q-96 0 -184.5 15.5t-156 49.5t-108.5 86t-41 124zM211 -174q0 -53 25.5 -92t69.5 -63.5t103.5 -37t125.5 -12.5q84 0 154.5 15.5t122.5 44t81 71.5t29 98q0 78 -54.5 122t-183.5 44h-215q-258 -10 -258 -190zM336 686q0 -127 54 -190.5t151 -63.5 q96 0 150 63.5t54 190.5t-54 190.5t-150 63.5t-150.5 -63.5t-54.5 -190.5z" />
<glyph unicode="h" horiz-adv-x="1245" d="M59 1520v14h318v-786q45 129 138 198.5t222 69.5q158 0 239 -95.5t81 -261.5v-436q0 -51 6 -81.5t19.5 -52t36 -38t55.5 -37.5v-14h-412v14q33 20 55.5 37t35.5 38.5t19.5 52t6.5 81.5v406q0 51 -11.5 98t-36 83t-65.5 57.5t-102 21.5q-57 0 -109.5 -23.5t-91.5 -69.5 t-62.5 -115t-23.5 -157v-301q0 -51 6 -81.5t19.5 -52t36 -38t55.5 -37.5v-14h-412v14q33 20 55.5 37t35.5 38.5t19.5 52t6.5 81.5v1098q0 43 -11.5 71.5t-30 51t-44 40t-54.5 36.5z" />
<glyph unicode="i" horiz-adv-x="575" d="M72 983v12h315v-772q0 -51 6 -81.5t19.5 -52t36 -38t55.5 -37.5v-14h-412v14q33 20 55.5 37t36 38.5t19.5 52t6 81.5v561q0 41 -10.5 71t-28.5 52.5t-44 40t-54 35.5zM158 1343q0 53 36.5 91.5t92.5 38.5q53 0 91 -38t38 -92q0 -53 -38 -89.5t-91 -36.5q-55 0 -92 36.5 t-37 89.5z" />
<glyph unicode="j" horiz-adv-x="550" d="M-233 -281q0 59 38.5 88t94.5 29q14 0 27.5 -2t23.5 -6q-18 -41 -19 -94q0 -53 32 -89t85 -36q84 0 117 73.5t33 194.5v907q0 41 -10.5 71t-29 52.5t-44 40t-56.5 35.5v12h318v-1065q0 -186 -89 -288.5t-255 -102.5q-119 0 -192.5 49.5t-73.5 130.5zM147 1343 q0 53 37 91.5t90 38.5q55 0 92 -38t37 -92q0 -53 -36.5 -89.5t-92.5 -36.5q-53 0 -90 36.5t-37 89.5z" />
<glyph unicode="k" horiz-adv-x="1189" d="M59 1520v14h318v-948h49q41 0 63.5 7t45.5 30l241 225q23 20 31 32.5t8 28.5q0 20 -16.5 37t-44.5 37v12h389v-12q-78 -27 -143.5 -62.5t-139.5 -103.5l-227 -215l328 -416q53 -66 110 -101.5t129 -68.5v-16h-352q-10 41 -25.5 71.5t-48.5 71.5l-254 326q-18 25 -34.5 34 t-43.5 9h-65v-289q0 -51 6 -81.5t19.5 -52t36 -38t55.5 -37.5v-14h-412v14q33 20 55.5 37t35.5 38.5t19.5 52t6.5 81.5v1098q0 43 -11.5 71.5t-30 51t-44 40t-54.5 36.5z" />
<glyph unicode="l" horiz-adv-x="569" d="M59 1520v14h318v-1311q0 -51 6 -81.5t19.5 -52t36 -38t55.5 -37.5v-14h-412v14q33 20 55.5 37t35.5 38.5t19.5 52t6.5 81.5v1098q0 43 -11.5 71.5t-30 51t-44 40t-54.5 36.5z" />
<glyph unicode="m" horiz-adv-x="1851" d="M72 983v12h307l8 -247q45 129 131 198.5t211 69.5q133 0 205 -73t88 -202q41 129 131 202t215 73q147 0 222 -95.5t75 -258.5v-439q0 -51 5 -81.5t18.5 -52t36 -38t55.5 -37.5v-14h-412v14q33 20 55.5 37t36 38.5t19.5 52t6 81.5v404q0 51 -9.5 98t-31 84t-58 59.5 t-92.5 22.5q-55 0 -103 -24.5t-85 -70.5t-58.5 -115t-21.5 -157v-301q0 -51 6 -81.5t19.5 -52t36 -38t55.5 -37.5v-14h-412v14q33 20 55.5 37t36 38.5t18.5 52t5 81.5v404q0 51 -8.5 98t-30 84t-58 59.5t-94.5 22.5q-53 0 -102 -24.5t-86 -70.5t-58.5 -115t-21.5 -157v-301 q0 -51 6 -81.5t19.5 -52t36 -38t55.5 -37.5v-14h-412v14q33 20 55.5 37t36 38.5t19.5 52t6 81.5v561q0 41 -10.5 71t-28.5 52.5t-44 40t-54 35.5z" />
<glyph unicode="n" horiz-adv-x="1255" d="M72 983v12h307l8 -247q45 129 138 198.5t223 69.5q158 0 238.5 -95.5t80.5 -261.5v-436q0 -51 6 -81.5t19.5 -52t36 -38t55.5 -37.5v-14h-412v14q33 20 55.5 37t36 38.5t19.5 52t6 81.5v406q0 51 -11.5 98t-36 83t-65.5 57.5t-102 21.5q-57 0 -109.5 -23.5t-91.5 -69.5 t-62.5 -115t-23.5 -157v-301q0 -51 6 -81.5t19.5 -52t36 -38t55.5 -37.5v-14h-412v14q33 20 55.5 37t36 38.5t19.5 52t6 81.5v561q0 41 -10.5 71t-28.5 52.5t-44 40t-54 35.5z" />
<glyph unicode="o" horiz-adv-x="1167" d="M84 498q0 113 38 208t104.5 164.5t157.5 107.5t200 38q106 0 198 -38t159 -107.5t104.5 -164.5t37.5 -208q0 -115 -37.5 -209t-104.5 -164t-159 -107.5t-198 -37.5q-109 0 -200 37.5t-157.5 107.5t-104.5 164t-38 209zM283 498q0 -203 75.5 -319t225.5 -116t225.5 116 t75.5 319t-76 318.5t-225 115.5q-150 0 -225.5 -116t-75.5 -318z" />
<glyph unicode="p" horiz-adv-x="1271" d="M61 983v12h308l8 -245q18 55 51 103t80 85t107.5 57.5t132.5 20.5q94 0 175 -34t140 -97.5t93 -157.5t34 -213q0 -123 -38 -222t-101.5 -168t-148.5 -106.5t-177 -37.5q-141 0 -225 59t-123 139v-395q0 -51 9 -82t28.5 -52.5t49.5 -36.5t71 -36v-16h-453v14 q33 20 55.5 36.5t35.5 38t19.5 52.5t6.5 82v1001q0 41 -10.5 71t-29 52.5t-44 40t-54.5 35.5zM377 399q0 -82 27.5 -141t71.5 -98t97.5 -58.5t104.5 -19.5q141 0 228 112.5t87 319.5q0 178 -82 284.5t-229 106.5q-70 0 -126 -30.5t-96 -81t-61.5 -118t-21.5 -140.5v-136z " />
<glyph unicode="q" horiz-adv-x="1247" d="M84 485q0 121 38 219.5t101.5 167t148.5 106.5t181 38q70 0 128 -17.5t105.5 -45t81.5 -65.5t52 -77q16 68 60 121t97 84h25q-20 -92 -23.5 -206t-3.5 -249v-778q0 -51 5 -82t18.5 -52.5t36 -38t55.5 -36.5v-14h-453v18q41 20 71 36.5t49.5 37t28.5 50.5t9 81v463 q-18 -55 -51 -103.5t-80 -84t-106.5 -57t-131.5 -21.5q-94 0 -175 33.5t-140 98t-93 159t-34 214.5zM279 485q0 -180 81.5 -287.5t229.5 -107.5q70 0 126 31t96 81t61.5 117.5t21.5 141.5v135q0 82 -27.5 142.5t-70.5 99.5t-97.5 58t-105.5 19q-141 0 -228 -112.5 t-87 -317.5z" />
<glyph unicode="r" horiz-adv-x="921" d="M72 983v12h307l8 -284q20 59 49 114.5t69 97.5t91 67.5t117 25.5q80 0 124 -41t44 -107q0 -63 -40 -98t-89 -35v14q0 49 -24 81q-28 36 -89 36q-53 0 -98 -31.5t-80 -87t-54.5 -128t-19.5 -154.5v-256q0 -45 9.5 -74t33 -48t61 -34.5t95.5 -34.5v-18h-494v14 q33 20 55.5 37t36 38.5t19.5 52t6 81.5v561q0 41 -10.5 71t-28.5 52.5t-44 40t-54 35.5z" />
<glyph unicode="s" horiz-adv-x="1001" d="M104 358h29q78 -145 172 -218.5t211 -73.5q94 0 157.5 43t63.5 135q0 86 -67.5 122.5t-196.5 61.5q-96 18 -160.5 45t-105.5 62.5t-58.5 83t-17.5 108.5q0 63 25.5 116.5t71.5 91.5t107.5 59.5t135.5 21.5q92 0 157.5 -24.5t119.5 -57.5l77 82h15v-338h-23 q-68 109 -150.5 181.5t-193.5 72.5q-92 0 -141 -42t-49 -110q0 -74 56 -113.5t189 -66.5q199 -39 283 -110.5t84 -196.5q0 -72 -28.5 -129.5t-80 -98t-120 -63t-150.5 -22.5q-98 0 -174 28.5t-127 59.5l-72 -88h-16z" />
<glyph unicode="t" horiz-adv-x="849" d="M45 907v54q129 27 194.5 122t90.5 248h57v-340h354l-10 -84h-344v-626q0 -90 41 -136.5t119 -46.5q162 0 205 219l41 -8q-10 -145 -87 -237t-217 -92q-129 0 -206.5 71.5t-77.5 206.5l2 649h-162z" />
<glyph unicode="u" horiz-adv-x="1224" d="M51 983v12h316v-626q0 -51 11 -98.5t35.5 -84t65.5 -59.5t101 -23q57 0 108 25t90 72t60.5 114.5t21.5 155.5v313q0 41 -10 71t-28.5 52.5t-44 40t-56.5 35.5v12h317v-772q0 -51 6.5 -81.5t19.5 -52t35.5 -38t55.5 -37.5v-14h-295v252q-43 -133 -133 -202.5t-221 -69.5 q-154 0 -236 94t-82 260v450q0 41 -10 71t-28.5 52.5t-44 40t-54.5 35.5z" />
<glyph unicode="v" horiz-adv-x="1067" d="M-6 983v12h379v-12q-39 -27 -56.5 -42t-17.5 -42q0 -23 10 -51.5t31 -73.5l242 -518l233 514q23 45 28 66.5t5 42.5q0 31 -32 54t-75 50v12h332v-12q-25 -20 -45 -40.5t-40.5 -47.5t-40 -61.5t-42.5 -79.5l-366 -774h-11l-366 774q-23 45 -42.5 79.5t-40 61.5t-41 47.5 t-44.5 40.5z" />
<glyph unicode="w" horiz-adv-x="1492" d="M-6 983v12h371v-12q-39 -27 -53.5 -43t-14.5 -39q0 -27 8 -54.5t25 -72.5l180 -479l195 549q-23 47 -49.5 77.5t-73.5 61.5v12h360v-12q-39 -25 -53.5 -42t-14.5 -40q0 -27 8.5 -54.5t24.5 -72.5l162 -485l186 479q16 43 22.5 62.5t6.5 39.5q0 29 -27.5 53.5t-87.5 59.5 v12h330v-12q-27 -23 -46 -41t-37.5 -43t-36 -59.5t-38.5 -85.5l-317 -774h-10l-269 749l-282 -749h-10l-299 774q-20 51 -38 84.5t-36.5 58.5t-39 44.5t-46.5 41.5z" />
<glyph unicode="x" horiz-adv-x="1087" d="M0 0v14q82 35 142.5 91.5t121.5 136.5l195 254l-178 254q-37 55 -66 89.5t-56.5 60.5t-57 44.5t-68.5 38.5v12h403v-12q-45 -37 -45 -65q0 -25 19.5 -56t58.5 -88l115 -162l118 162q37 49 54.5 74.5t17.5 54.5q0 25 -19.5 42.5t-41.5 37.5v12h338v-12q-82 -35 -142.5 -91 t-122.5 -138l-159 -205l213 -303q33 -47 59.5 -82t54 -62.5t59 -48t74.5 -39.5v-14h-403v14q23 16 34 30.5t11 33.5q0 27 -19.5 57.5t-58.5 85.5l-147 211l-154 -209q-37 -53 -51 -76.5t-14 -50.5q0 -23 14 -41t41 -41v-14h-340z" />
<glyph unicode="y" horiz-adv-x="1058" d="M-6 983v12h381v-12q-39 -27 -56.5 -44t-17.5 -40q0 -27 10.5 -52.5t30.5 -72.5l242 -573l227 565q16 41 23.5 65.5t7.5 47.5q0 29 -29 52t-80 52v12h332v-12q-25 -23 -45.5 -43t-39.5 -46t-37.5 -59.5t-39.5 -80.5l-397 -936q-25 -61 -50.5 -112.5t-58 -88.5t-74.5 -57.5 t-100 -20.5q-72 0 -119 41t-47 107q0 51 37 88t88 45q-4 -10 -6 -24.5t-2 -24.5q0 -41 24.5 -69t65.5 -28q55 0 92 45t74 131l66 146l-334 758q-20 47 -40 80.5t-40.5 59.5t-42 46.5t-45.5 42.5z" />
<glyph unicode="z" horiz-adv-x="1067" d="M82 0v10l629 908h-254q-57 0 -96 -11.5t-72 -39t-64.5 -76t-74.5 -123.5h-21l31 348q25 -10 58.5 -15.5t86.5 -5.5h656v-8l-625 -909h295q55 0 95 11t76 40t71.5 79t82.5 128h25l-59 -336h-840z" />
<glyph unicode="{" horiz-adv-x="784" d="M57 590v35q49 2 95.5 15t82 46t56 87t20.5 136q0 33 -6 72t-12 80t-12.5 83t-6.5 83q0 63 26 119.5t74 98.5t114.5 65.5t146.5 23.5q23 0 46.5 -2t47.5 -6v-19q-61 0 -115.5 -18.5t-96.5 -54t-65.5 -90t-23.5 -127.5q0 -27 6 -67t13.5 -85t13.5 -89t6 -79 q0 -78 -29.5 -131t-72.5 -88t-89.5 -51.5t-78.5 -20.5q33 -4 79 -20.5t89 -50t72.5 -88t29.5 -132.5q0 -35 -6 -78.5t-13.5 -88t-13.5 -84t-6 -66.5q0 -74 23.5 -128t65.5 -91t96.5 -55.5t115.5 -18.5v-18q-25 -4 -48.5 -6.5t-45.5 -2.5q-80 0 -146.5 24t-114.5 66t-74 98 t-26 122q0 39 6.5 81t12.5 83t12 79.5t6 71.5q0 82 -20.5 136.5t-56 87t-82 47t-95.5 16.5z" />
<glyph unicode="|" horiz-adv-x="454" d="M184 -313v1847h86v-1847h-86z" />
<glyph unicode="}" horiz-adv-x="768" d="M39 -295q61 0 115.5 18.5t96.5 55.5t65.5 91t23.5 128q0 27 -6 66.5t-13.5 84t-13.5 88.5t-6 78q0 78 29.5 132.5t72.5 88t89.5 50t78.5 20.5q-33 4 -79 20.5t-89 51.5t-72.5 88t-29.5 131q0 35 6 79t13.5 89t13.5 85t6 67q0 74 -23.5 128t-65.5 89.5t-96.5 54 t-115.5 18.5v19q25 4 48.5 6t45.5 2q80 0 146.5 -23.5t114.5 -65.5t74 -98.5t26 -119.5q0 -41 -6.5 -83t-12.5 -83t-12 -80t-6 -72q0 -82 20.5 -136t56 -87t82 -46t95.5 -15v-35q-49 -2 -95.5 -16.5t-82 -47t-56 -87t-20.5 -136.5q0 -33 6 -71.5t12 -79.5t12.5 -83t6.5 -81 q0 -66 -26 -122t-74 -98t-114.5 -66t-146.5 -24q-23 0 -46.5 2.5t-47.5 6.5v18z" />
<glyph unicode="~" horiz-adv-x="1019" d="M102 504q35 125 100.5 186.5t151.5 61.5q47 0 91 -16.5t87 -36t85 -36t90 -16.5q63 0 107 29t77 86h27q-35 -125 -100.5 -186.5t-149.5 -61.5q-49 0 -92.5 16.5t-86.5 36t-86 35.5t-88 16q-66 0 -109.5 -28.5t-76.5 -85.5h-27z" />
<glyph unicode="&#xa1;" horiz-adv-x="550" d="M137 1008q0 59 40 99t99 40q57 0 97.5 -40t40.5 -99t-40 -99.5t-98 -40.5q-59 0 -99 40t-40 100zM147 -305l115 1016h27l114 -1016h-256z" />
<glyph unicode="&#xa2;" horiz-adv-x="1124" d="M100 510q0 129 40 231.5t111 175t166 111.5t204 39l16 195h63l-16 -197q141 -12 232.5 -77.5t91.5 -170.5q0 -37 -12.5 -62.5t-31 -41t-42 -21.5t-45.5 -6q-14 0 -30 3t-26 11q14 20 20.5 38t6.5 53q0 76 -42 128t-128 64l-74 -889q12 -2 23.5 -2h23.5q127 0 209 62.5 t129 189.5l41 -16q-37 -168 -146.5 -258t-285.5 -90h-2l-18 -213h-64l18 217q-92 10 -170.5 50t-137 106.5t-91.5 159.5t-33 210zM297 537q0 -174 64.5 -284t181.5 -144l71 878q-80 -4 -139 -40t-99 -96t-59.5 -141t-19.5 -173z" />
<glyph unicode="&#xa3;" horiz-adv-x="1337" d="M23 147q0 82 58 131.5t148 49.5q47 0 95.5 -12.5t97.5 -32.5q23 86 22 190q0 45 -3 94t-7 103h-235v75h229q-4 61 -8 123t-4 121q0 104 30.5 190.5t88 148t139.5 94t186 32.5q88 0 155.5 -20.5t113 -55.5t68 -81t22.5 -97q0 -86 -47.5 -130t-112.5 -44q-35 0 -70 14 q23 20 40.5 53t17.5 101q0 80 -44.5 131t-142.5 51q-123 0 -182.5 -92t-59.5 -244v-264v-31h330v-75h-332q-8 -135 -31.5 -243t-60.5 -187q96 -41 204 -80t239 -39q90 0 153.5 46t79.5 163q27 -20 44.5 -51t17.5 -80q0 -59 -22.5 -105.5t-61.5 -79t-91.5 -49t-113.5 -16.5 q-76 0 -141.5 20.5t-125 52t-114.5 68.5t-109 72q-59 -94 -131.5 -138t-144.5 -44q-82 0 -133 47t-51 120zM113 147q0 -47 26.5 -69.5t67.5 -22.5q55 0 105 38t85 116q-41 18 -82 29.5t-86 11.5q-53 0 -84.5 -26.5t-31.5 -76.5z" />
<glyph unicode="&#xa5;" horiz-adv-x="1366" d="M41 1417v17h418v-17q-41 -25 -55.5 -45t-14.5 -49q0 -23 8.5 -45.5t22.5 -46.5l313 -533l307 533q14 23 22.5 46t8.5 46q0 29 -13.5 49.5t-53.5 44.5v17h321v-17q-31 -23 -55.5 -44t-46 -44.5t-43 -53.5t-45.5 -71l-252 -424h305v-73h-348l-66 -109v-82h414v-72h-414 v-215q0 -51 7 -82.5t24.5 -54t45.5 -39t71 -37.5v-16h-478v16q43 20 71 37t45.5 39.5t24.5 54t7 82.5v215h-414v72h414v82l-66 109h-348v73h305l-252 424q-23 39 -43 67.5t-42.5 53.5t-48 47.5t-56.5 44.5z" />
<glyph unicode="&#xa7;" horiz-adv-x="1130" d="M131 666q0 78 36 148.5t89 119.5q-41 82 -41 178q0 70 27.5 132.5t77 109.5t119 73.5t153.5 26.5q74 0 137.5 -20.5t111.5 -56.5t74.5 -83t26.5 -98q0 -72 -40 -108.5t-97 -36.5q-45 0 -84 14q23 18 43 45t20 86q0 76 -51 126t-143 50q-117 0 -177.5 -63.5t-60.5 -161.5 q0 -45 12.5 -80t34 -64.5t53 -58.5t70.5 -59l316 -250q86 -70 123.5 -147.5t37.5 -159.5q0 -78 -36 -149t-89 -120q41 -82 41 -178q0 -72 -27.5 -133t-77.5 -108.5t-119.5 -74t-153.5 -26.5q-74 0 -137.5 20.5t-111.5 56.5t-75 82t-27 99q0 72 41 109t97 37q27 0 47 -4.5 t37 -10.5q-20 -18 -42 -44.5t-22 -86.5q0 -76 51 -126t144 -50q117 0 177 63.5t60 161.5q0 45 -11 80t-33.5 64.5t-54.5 58.5t-71 60l-313 249q-88 70 -125 148t-37 160zM233 756q0 -68 28 -123t97 -111l351 -282q47 -39 78.5 -72t60.5 -76q23 27 36 62.5t13 83.5 q0 68 -28.5 123t-96.5 110l-350 283q-47 39 -79 71.5t-60 75.5q-49 -55 -50 -145z" />
<glyph unicode="&#xa8;" horiz-adv-x="1024" d="M207 1311q0 49 33.5 85t87.5 36q51 0 86 -36t35 -85q0 -51 -35 -87t-86 -36q-53 0 -87 36t-34 87zM573 1311q0 49 36 85t87 36t86 -36t35 -85q0 -51 -35 -87t-86 -36t-87 36t-36 87z" />
<glyph unicode="&#xa9;" horiz-adv-x="1658" d="M92 717q0 160 58.5 295t158 233t233.5 153.5t287 55.5q154 0 288 -55.5t233.5 -153.5t158 -233t58.5 -295t-58.5 -295t-158 -233.5t-233.5 -153.5t-288 -55t-287.5 55t-233 153.5t-158 233.5t-58.5 295zM156 717q0 -147 53 -271t144 -214.5t214 -140.5t262 -50t262 50 t214.5 140.5t144.5 214.5t53 271t-53 271t-144.5 214t-214 140.5t-262.5 50.5q-139 0 -262 -50.5t-214 -140.5t-144 -214t-53 -271zM420 713q0 98 33.5 180t92 141.5t138.5 92t174 32.5q76 0 131 -20.5t94 -48.5l66 69h8v-274h-16q-51 92 -112.5 151.5t-160.5 59.5 q-68 0 -121 -27t-89.5 -76t-56 -117.5t-19.5 -150.5q0 -90 23.5 -156.5t65.5 -111.5t99 -67.5t123 -22.5q92 0 159.5 37.5t118.5 142.5l27 -10q-31 -123 -122 -196t-232 -73q-92 0 -169 33t-134.5 91.5t-89 140t-31.5 180.5z" />
<glyph unicode="&#xaa;" horiz-adv-x="933" d="M121 745q0 57 28.5 97.5t75.5 66t107.5 41t126.5 27.5l112 20v64q0 92 -32.5 135t-112.5 43q-59 0 -93 -27.5t-34 -78.5q0 -29 9 -45.5t22 -28.5q-10 -12 -36 -19.5t-48 -7.5q-41 0 -66.5 23.5t-25.5 64.5q0 72 76.5 124t211.5 52q289 0 289 -239q0 -86 -2 -165t-2 -149 q0 -66 34 -92t105 -37v-16q-25 -10 -63.5 -18.5t-79.5 -8.5q-72 0 -108 35t-40 115q-23 -68 -89 -111t-156 -43q-86 0 -147.5 44t-61.5 134zM176 317v78h615v-78h-615zM281 768q0 -57 31.5 -86t84.5 -29q33 0 64 13.5t55.5 41t39.5 68.5t15 94v78l-96 -20q-96 -20 -145 -54 t-49 -106z" />
<glyph unicode="&#xab;" horiz-adv-x="1273" d="M127 492v16q141 78 270 189.5t246 234.5h35q-66 -129 -147.5 -241.5t-147.5 -190.5q66 -78 147.5 -190.5t147.5 -241.5h-35q-117 123 -246 234.5t-270 189.5zM623 492v16q141 78 270 189.5t246 234.5h35q-66 -129 -148 -241.5t-147 -190.5q66 -78 147.5 -190.5 t147.5 -241.5h-35q-117 123 -246 234.5t-270 189.5z" />
<glyph unicode="&#xad;" horiz-adv-x="714" d="M102 510v104h510v-104h-510z" />
<glyph unicode="&#xae;" horiz-adv-x="1110" d="M113 1012q0 96 34.5 177t95 140.5t140.5 92t172 32.5t172 -32.5t140.5 -92t95 -140.5t34.5 -177t-34.5 -177t-95 -140.5t-140.5 -92.5t-172 -33t-172 33t-140.5 92.5t-95 140t-34.5 177.5zM164 1012q0 -86 30.5 -159t84 -125t124 -81t152.5 -29t152.5 29t124 81t84 125 t30.5 159t-30.5 157.5t-84 124t-124 82t-152.5 29.5t-152.5 -29.5t-124 -82t-84 -124t-30.5 -157.5zM340 772v12q27 14 38 23.5t11 44.5v326q0 35 -11 44t-38 23v12h225q78 0 129 -30.5t51 -102.5q0 -61 -46 -90.5t-103 -29.5v-3q47 -4 73.5 -25.5t41.5 -60.5l18 -55 q12 -39 28.5 -51t49.5 -25v-12h-133q-10 20 -16.5 35.5t-16.5 42.5l-23 63q-12 41 -31.5 56.5t-66.5 15.5h-45v-133q0 -35 10.5 -44t36.5 -24v-12h-182zM475 1030h55q51 0 87 16.5t36 77.5q0 55 -34.5 74t-88.5 19h-55v-187z" />
<glyph unicode="&#xaf;" horiz-adv-x="1024" d="M229 1208v113h566v-113h-566z" />
<glyph unicode="&#xb0;" horiz-adv-x="720" d="M100 1194q0 53 20.5 100t55.5 83t83 56.5t101 20.5t100.5 -20.5t83.5 -56.5t56.5 -83t20.5 -100t-20.5 -101.5t-56.5 -83t-83 -55t-101 -20.5q-53 0 -101 20.5t-83 55t-55.5 83t-20.5 101.5zM182 1194q0 -76 51.5 -128t126.5 -52q76 0 128.5 52t52.5 128t-52.5 128 t-128.5 52t-127 -52t-51 -128z" />
<glyph unicode="&#xb1;" horiz-adv-x="1247" d="M152 211v98h944v-98h-944zM152 776v96h426v363h94v-363h424v-96h-424v-368h-94v368h-426z" />
<glyph unicode="&#xb2;" horiz-adv-x="763" d="M53 618v7l183 196q43 45 86 94.5t77.5 100.5t56 105.5t21.5 113.5q0 70 -34.5 112t-100.5 42q-59 0 -91 -38t-32 -98q-2 -41 11.5 -73.5t35.5 -49.5q-10 -8 -26.5 -11t-32.5 -3q-53 0 -88 34t-35 93q0 86 70.5 144.5t187.5 58.5q57 0 110.5 -14.5t94.5 -44t64.5 -74.5 t23.5 -107q0 -61 -26.5 -114.5t-80 -107.5t-133.5 -111.5t-184 -129.5l242 5q45 0 73.5 3t50 13t40 29.5t40.5 56.5h19l-27 -232h-596z" />
<glyph unicode="&#xb3;" horiz-adv-x="782" d="M84 801q0 59 38 93t91 34q35 0 59 -15q-20 -23 -31.5 -48t-11.5 -64q0 -70 39 -102.5t103 -32.5q72 0 114.5 44t42.5 132q0 195 -192 194v43q172 6 172 164q0 143 -131 143q-59 0 -92 -31.5t-33 -90.5q0 -74 47 -105q-20 -14 -57 -14q-49 0 -83 31.5t-34 87.5 q0 78 68.5 130t183.5 52q57 0 109.5 -12.5t90 -38t60 -63.5t22.5 -89q0 -43 -17 -74.5t-46 -55t-66.5 -37t-78.5 -15.5v-2q109 -6 174 -64.5t65 -152.5q0 -59 -25.5 -103.5t-68.5 -74t-101 -44t-124 -14.5q-57 0 -108.5 13.5t-91.5 39t-63.5 61.5t-23.5 81z" />
<glyph unicode="&#xb4;" horiz-adv-x="1024" d="M330 1149l137 385h227l-325 -385h-39z" />
<glyph unicode="&#xb6;" horiz-adv-x="1298" d="M66 1004q0 109 50 189.5t135 133.5t197.5 80t237.5 27h508v-17q-37 -20 -59.5 -36.5t-37 -39t-19.5 -54.5t-5 -83v-1642h-94v1804h-199v-1804h-94v1013q-125 0 -237.5 27t-197.5 80t-135 133t-50 189z" />
<glyph unicode="&#xb7;" horiz-adv-x="524" d="M123 561q0 59 40 99t99 40q57 0 98 -40t41 -99t-41 -99t-98 -40q-59 0 -99 40t-40 99z" />
<glyph unicode="&#xb8;" horiz-adv-x="1024" d="M285 -346l30 41q68 -74 162 -74q47 0 80 23.5t33 72.5q0 113 -197 119l96 205h76l-71 -158q109 -4 178 -46t69 -120q0 -82 -67.5 -127t-165.5 -45q-78 0 -137.5 31t-85.5 78z" />
<glyph unicode="&#xb9;" horiz-adv-x="546" d="M49 1411v23h301v-691q0 -43 34 -57t112 -43v-25h-443v25q78 29 112 43t34 57v560q0 23 -8.5 36t-26 23t-46 21.5t-69.5 27.5z" />
<glyph unicode="&#xba;" horiz-adv-x="940" d="M109 932q0 80 27.5 147.5t76.5 115.5t114.5 74.5t143.5 26.5q76 0 142.5 -26.5t114.5 -74.5t75.5 -115.5t27.5 -147.5t-27.5 -147.5t-75.5 -115.5t-114.5 -75t-142.5 -27q-78 0 -143.5 27t-114.5 75t-76.5 115.5t-27.5 147.5zM164 317v78h614v-78h-614zM281 932 q0 -147 46 -226t144 -79t144.5 79t46.5 226t-46.5 226t-144.5 79t-144 -79t-46 -226z" />
<glyph unicode="&#xbb;" horiz-adv-x="1273" d="M100 68q66 129 148 241.5t147 190.5q-66 78 -147.5 190.5t-147.5 241.5h35q117 -123 246 -234.5t270 -189.5v-16q-141 -78 -270 -190t-246 -234h-35zM596 68q66 129 147.5 241.5t147.5 190.5q-66 78 -147.5 190.5t-147.5 241.5h35q117 -123 246 -234.5t270 -189.5v-16 q-141 -78 -270 -190t-246 -234h-35z" />
<glyph unicode="&#xbc;" horiz-adv-x="1675" d="M49 1411v23h301v-691q0 -43 34 -57t112 -43v-25h-443v25q78 29 112 43t34 57v560q0 23 -8.5 36t-26 23t-46 21.5t-69.5 27.5zM276 -20l898 1474h96l-897 -1474h-97zM866 225l424 590h129v-543h56q27 0 43 2t27 9.5t21.5 19.5t22.5 31h15v-176h-15q-12 18 -22.5 30.5 t-21.5 19.5t-27.5 10t-42.5 3h-56v-86q0 -29 3 -47t10.5 -30.5t19.5 -21.5t31 -22v-14h-277v14q18 12 30.5 21.5t20 22t10.5 30.5t3 47v86h-400zM973 272h297v420z" />
<glyph unicode="&#xbd;" horiz-adv-x="1693" d="M49 1411v23h301v-691q0 -43 34 -57t112 -43v-25h-443v25q78 29 112 43t34 57v560q0 23 -8.5 36t-26 23t-46 21.5t-69.5 27.5zM276 -20l898 1474h96l-897 -1474h-97zM983 0v6l182 197q43 45 86 94t78 100.5t56.5 105.5t21.5 113q0 70 -35 112t-100 42q-59 0 -91 -38 t-32 -97q-2 -41 11.5 -74t35.5 -49q-10 -8 -26.5 -11t-32.5 -3q-53 0 -88 33.5t-35 93.5q0 86 70.5 144t187.5 58q57 0 110.5 -14t94.5 -44t64.5 -75t23.5 -106t-27 -114.5t-80 -108t-133 -111.5t-184 -129l241 4q45 0 74 3t50.5 13.5t40 30t40.5 55.5h19l-27 -231h-596z " />
<glyph unicode="&#xbe;" horiz-adv-x="1830" d="M84 801q0 59 38 93t91 34q35 0 59 -15q-20 -23 -31.5 -48t-11.5 -64q0 -70 39 -102.5t103 -32.5q72 0 114.5 44t42.5 132q0 195 -192 194v43q172 6 172 164q0 143 -131 143q-59 0 -92 -31.5t-33 -90.5q0 -74 47 -105q-20 -14 -57 -14q-49 0 -83 31.5t-34 87.5 q0 78 68.5 130t183.5 52q57 0 109.5 -12.5t90 -38t60 -63.5t22.5 -89q0 -43 -17 -74.5t-46 -55t-66.5 -37t-78.5 -15.5v-2q109 -6 174 -64.5t65 -152.5q0 -59 -25.5 -103.5t-68.5 -74t-101 -44t-124 -14.5q-57 0 -108.5 13.5t-91.5 39t-63.5 61.5t-23.5 81zM432 -20 l897 1474h96l-897 -1474h-96zM1022 225l424 590h129v-543h55q27 0 43.5 2t27.5 9.5t21.5 19.5t22.5 31h14v-176h-14q-12 18 -22.5 30.5t-21.5 19.5t-27.5 10t-43.5 3h-55v-86q0 -29 3 -47t10 -30.5t19.5 -21.5t30.5 -22v-14h-276v14q18 12 30.5 21.5t19.5 22t10 30.5t3 47 v86h-399zM1128 272h297v420z" />
<glyph unicode="&#xbf;" horiz-adv-x="1021" d="M90 47q0 90 33 164t90 130t134 98t165 67v211h78v-371q-72 -14 -133.5 -42t-107.5 -68.5t-72.5 -97t-26.5 -126.5q0 -53 16.5 -100t50 -82t83.5 -55.5t116 -20.5q121 0 183.5 67.5t62.5 166.5q0 41 -14.5 78.5t-36.5 60.5q10 6 28.5 11t34.5 5q72 0 116 -43t44 -129 q0 -57 -30 -110.5t-85 -95t-133 -66.5t-172 -25q-100 0 -179 30t-133.5 80t-83 117.5t-28.5 145.5zM412 1008q0 59 40 99t97 40q59 0 99 -40t40 -99t-40 -99.5t-99 -40.5q-57 0 -97 40.5t-40 99.5z" />
<glyph unicode="&#xc0;" horiz-adv-x="1556" d="M16 0v16q33 25 58.5 44.5t45 42t38 53t41.5 77.5l573 1225h10l574 -1225q23 -47 40 -77.5t35.5 -53t41 -42t57.5 -44.5v-16h-447v16q66 29 89.5 50.5t23.5 54.5q0 20 -6 38.5t-23 49.5l-123 264h-630l-119 -262q-14 -29 -19.5 -48.5t-5.5 -37.5q0 -33 32 -54.5t99 -54.5 v-16h-385zM453 557h553l-279 600zM459 1911h246l118 -336h-39z" />
<glyph unicode="&#xc1;" horiz-adv-x="1556" d="M16 0v16q33 25 58.5 44.5t45 42t38 53t41.5 77.5l573 1225h10l574 -1225q23 -47 40 -77.5t35.5 -53t41 -42t57.5 -44.5v-16h-447v16q66 29 89.5 50.5t23.5 54.5q0 20 -6 38.5t-23 49.5l-123 264h-630l-119 -262q-14 -29 -19.5 -48.5t-5.5 -37.5q0 -33 32 -54.5t99 -54.5 v-16h-385zM453 557h553l-279 600zM737 1575l119 336h246l-326 -336h-39z" />
<glyph unicode="&#xc2;" horiz-adv-x="1556" d="M16 0v16q33 25 58.5 44.5t45 42t38 53t41.5 77.5l573 1225h10l574 -1225q23 -47 40 -77.5t35.5 -53t41 -42t57.5 -44.5v-16h-447v16q66 29 89.5 50.5t23.5 54.5q0 20 -6 38.5t-23 49.5l-123 264h-630l-119 -262q-14 -29 -19.5 -48.5t-5.5 -37.5q0 -33 32 -54.5t99 -54.5 v-16h-385zM449 1552q41 37 86 84t87 98.5t77.5 101.5t58.5 93h37q23 -43 58.5 -93t77.5 -101.5t87 -98.5t86 -84h-66q-80 43 -141 86t-121 101q-59 -57 -120.5 -100.5t-141.5 -86.5h-65zM453 557h553l-279 600z" />
<glyph unicode="&#xc3;" horiz-adv-x="1556" d="M16 0v16q33 25 58.5 44.5t45 42t38 53t41.5 77.5l573 1225h10l574 -1225q23 -47 40 -77.5t35.5 -53t41 -42t57.5 -44.5v-16h-447v16q66 29 89.5 50.5t23.5 54.5q0 20 -6 38.5t-23 49.5l-123 264h-630l-119 -262q-14 -29 -19.5 -48.5t-5.5 -37.5q0 -33 32 -54.5t99 -54.5 v-16h-385zM406 1589q39 135 96 208t131 73q43 0 83 -20.5t77.5 -45t74.5 -45t72 -20.5q61 0 96 38t64 101h51q-39 -135 -96.5 -207t-130.5 -72q-43 0 -83 20.5t-79 44.5t-75 44.5t-71 20.5q-61 0 -96 -38t-63 -102h-51zM453 557h553l-279 600z" />
<glyph unicode="&#xc4;" horiz-adv-x="1556" d="M16 0v16q33 25 58.5 44.5t45 42t38 53t41.5 77.5l573 1225h10l574 -1225q23 -47 40 -77.5t35.5 -53t41 -42t57.5 -44.5v-16h-447v16q66 29 89.5 50.5t23.5 54.5q0 20 -6 38.5t-23 49.5l-123 264h-630l-119 -262q-14 -29 -19.5 -48.5t-5.5 -37.5q0 -33 32 -54.5t99 -54.5 v-16h-385zM453 557h553l-279 600zM471 1704q0 49 34 85t87 36q51 0 86 -36t35 -85q0 -51 -35 -87t-86 -36q-53 0 -87 36t-34 87zM838 1704q0 49 35.5 85t87.5 36q51 0 85.5 -36t34.5 -85q0 -51 -34.5 -87t-85.5 -36t-87 36t-36 87z" />
<glyph unicode="&#xc5;" horiz-adv-x="1556" d="M16 0v16q33 25 58.5 44.5t45 42t38 53t41.5 77.5l573 1225h10l574 -1225q23 -47 40 -77.5t35.5 -53t41 -42t57.5 -44.5v-16h-447v16q66 29 89.5 50.5t23.5 54.5q0 20 -6 38.5t-23 49.5l-123 264h-630l-119 -262q-14 -29 -19.5 -48.5t-5.5 -37.5q0 -33 32 -54.5t99 -54.5 v-16h-385zM453 557h553l-279 600zM557 1729q0 43 17.5 82.5t47 68.5t69.5 46.5t85 17.5t85 -17.5t70 -46.5t47 -68.5t17 -82.5q0 -45 -17 -84t-47 -69t-70 -47.5t-85 -17.5t-85 17.5t-69.5 47.5t-47 69t-17.5 84zM649 1729q0 -55 35 -91t92 -36t92 36t35 91q0 57 -34.5 93 t-92.5 36q-57 0 -92 -36t-35 -93z" />
<glyph unicode="&#xc6;" horiz-adv-x="2228" d="M25 0v16q33 25 59.5 45.5t50 44t47 53t51.5 72.5l699 1016q18 27 18 58t-36.5 57.5t-90.5 54.5v17h1073q47 0 74 4t49 8l70 -326h-16q-49 57 -88 101.5t-84.5 74t-103.5 44t-146 14.5h-357v-578h293q61 0 101.5 6t68 25.5t49 58.5t45.5 107h19v-473h-19q-25 68 -46 106.5 t-48.5 59t-67.5 25.5t-102 5h-293v-616h404q84 0 144.5 14.5t108.5 46t91 83.5t92 126h16l-65 -350h-1108v16q37 20 61.5 37t40 39.5t22.5 54t7 82.5v310h-551l-225 -326q-23 -29 -36 -54.5t-13 -45.5q0 -29 21.5 -45.5t86.5 -51.5v-16h-366zM614 623h494v714z" />
<glyph unicode="&#xc7;" horiz-adv-x="1462" d="M96 717q0 162 55.5 297t151.5 233.5t229.5 152.5t286.5 54q123 0 213 -32.5t152 -80.5l104 113h17v-432h-19q-41 72 -87 134.5t-101.5 108.5t-121 72.5t-147.5 26.5q-117 0 -212 -46t-164.5 -131t-107.5 -202t-38 -258q0 -150 44 -266.5t118 -196.5t172 -121t207 -41 q162 0 280.5 75t202.5 251l35 -14q-25 -98 -74 -178t-121.5 -137.5t-166 -88t-203.5 -30.5h-4l-43 -97q109 -4 178 -46t69 -120q0 -82 -67.5 -127t-165.5 -45q-78 0 -137.5 31t-85.5 78l30 41q68 -74 162 -74q47 0 80 23.5t33 72.5q0 113 -197 119l70 148q-139 12 -255 71.5 t-199 155.5t-128 225t-45 281z" />
<glyph unicode="&#xc8;" horiz-adv-x="1347" d="M96 0v16q37 20 61.5 37t40 39.5t21.5 54t6 82.5v975q0 51 -6 83t-21.5 54.5t-40 39t-61.5 36.5v17h920q47 0 73.5 4t49.5 8l69 -326h-16q-49 57 -89 101.5t-84 74t-102.5 44t-146.5 14.5h-358v-578h295q61 0 101 6t67.5 25.5t48 58.5t47.5 107h18v-473h-18 q-27 68 -47.5 106.5t-48 59t-67.5 25.5t-101 5h-295v-616h405q84 0 144.5 14.5t108.5 46t91 83.5t92 126h17l-66 -350h-1108zM360 1911h246l119 -336h-39z" />
<glyph unicode="&#xc9;" horiz-adv-x="1347" d="M96 0v16q37 20 61.5 37t40 39.5t21.5 54t6 82.5v975q0 51 -6 83t-21.5 54.5t-40 39t-61.5 36.5v17h920q47 0 73.5 4t49.5 8l69 -326h-16q-49 57 -89 101.5t-84 74t-102.5 44t-146.5 14.5h-358v-578h295q61 0 101 6t67.5 25.5t48 58.5t47.5 107h18v-473h-18 q-27 68 -47.5 106.5t-48 59t-67.5 25.5t-101 5h-295v-616h405q84 0 144.5 14.5t108.5 46t91 83.5t92 126h17l-66 -350h-1108zM639 1575l119 336h246l-326 -336h-39z" />
<glyph unicode="&#xca;" horiz-adv-x="1347" d="M96 0v16q37 20 61.5 37t40 39.5t21.5 54t6 82.5v975q0 51 -6 83t-21.5 54.5t-40 39t-61.5 36.5v17h920q47 0 73.5 4t49.5 8l69 -326h-16q-49 57 -89 101.5t-84 74t-102.5 44t-146.5 14.5h-358v-578h295q61 0 101 6t67.5 25.5t48 58.5t47.5 107h18v-473h-18 q-27 68 -47.5 106.5t-48 59t-67.5 25.5t-101 5h-295v-616h405q84 0 144.5 14.5t108.5 46t91 83.5t92 126h17l-66 -350h-1108zM352 1569q41 37 86 84t87 98t78 101.5t59 93.5h36q23 -43 59 -93.5t78 -101.5t87 -98t86 -84h-66q-80 43 -141.5 86t-120.5 100 q-59 -57 -120.5 -100t-141.5 -86h-66z" />
<glyph unicode="&#xcb;" horiz-adv-x="1347" d="M96 0v16q37 20 61.5 37t40 39.5t21.5 54t6 82.5v975q0 51 -6 83t-21.5 54.5t-40 39t-61.5 36.5v17h920q47 0 73.5 4t49.5 8l69 -326h-16q-49 57 -89 101.5t-84 74t-102.5 44t-146.5 14.5h-358v-578h295q61 0 101 6t67.5 25.5t48 58.5t47.5 107h18v-473h-18 q-27 68 -47.5 106.5t-48 59t-67.5 25.5t-101 5h-295v-616h405q84 0 144.5 14.5t108.5 46t91 83.5t92 126h17l-66 -350h-1108zM375 1720q0 49 33.5 85t87.5 36q51 0 85.5 -36t34.5 -85q0 -51 -34.5 -87t-85.5 -36q-53 0 -87 36t-34 87zM741 1720q0 49 36 85t87 36t86 -36 t35 -85q0 -51 -35 -87t-86 -36t-87 36t-36 87z" />
<glyph unicode="&#xcc;" horiz-adv-x="638" d="M0 1911h246l119 -336h-39zM96 0v16q37 20 61.5 37t40 39.5t21.5 54t6 82.5v975q0 51 -6 83t-21.5 54.5t-40 39t-61.5 36.5v17h447v-17q-37 -20 -61.5 -36.5t-40 -39t-22.5 -54.5t-7 -83v-975q0 -51 7 -82.5t22.5 -54t40 -39t61.5 -37.5v-16h-447z" />
<glyph unicode="&#xcd;" horiz-adv-x="638" d="M96 0v16q37 20 61.5 37t40 39.5t21.5 54t6 82.5v975q0 51 -6 83t-21.5 54.5t-40 39t-61.5 36.5v17h447v-17q-37 -20 -61.5 -36.5t-40 -39t-22.5 -54.5t-7 -83v-975q0 -51 7 -82.5t22.5 -54t40 -39t61.5 -37.5v-16h-447zM279 1575l118 336h246l-326 -336h-38z" />
<glyph unicode="&#xce;" horiz-adv-x="638" d="M-8 1569q41 37 86 84t87 98t78 101.5t58 93.5h37q23 -43 58.5 -93.5t77.5 -101.5t87 -98t86 -84h-65q-80 43 -141.5 86t-121.5 100q-59 -57 -120.5 -100t-141.5 -86h-65zM96 0v16q37 20 61.5 37t40 39.5t21.5 54t6 82.5v975q0 51 -6 83t-21.5 54.5t-40 39t-61.5 36.5v17 h447v-17q-37 -20 -61.5 -36.5t-40 -39t-22.5 -54.5t-7 -83v-975q0 -51 7 -82.5t22.5 -54t40 -39t61.5 -37.5v-16h-447z" />
<glyph unicode="&#xcf;" horiz-adv-x="638" d="M14 1720q0 49 34 85t87 36q51 0 86 -36t35 -85q0 -51 -35 -87t-86 -36q-53 0 -87 36t-34 87zM96 0v16q37 20 61.5 37t40 39.5t21.5 54t6 82.5v975q0 51 -6 83t-21.5 54.5t-40 39t-61.5 36.5v17h447v-17q-37 -20 -61.5 -36.5t-40 -39t-22.5 -54.5t-7 -83v-975 q0 -51 7 -82.5t22.5 -54t40 -39t61.5 -37.5v-16h-447zM381 1720q0 49 36 85t87 36t86 -36t35 -85q0 -51 -35 -87t-86 -36t-87 36t-36 87z" />
<glyph unicode="&#xd0;" horiz-adv-x="1576" d="M100 694v84h150v426q0 51 -6 83t-21.5 54.5t-40 39t-61.5 36.5v17h559q186 0 334.5 -50.5t251 -143.5t158 -225t55.5 -296q0 -168 -55.5 -301t-158 -226.5t-249 -142.5t-326.5 -49h-569v16q37 20 61.5 37t40 39.5t21.5 54t6 82.5v465h-150zM436 82h236q293 0 446.5 169 t153.5 468q0 143 -39 261t-116 200t-190.5 127t-260.5 45h-230v-574h363v-84h-363v-612z" />
<glyph unicode="&#xd1;" horiz-adv-x="1597" d="M74 0v16q37 20 64.5 37t47 40.5t29.5 55t10 82.5v973q0 51 -6 83t-21.5 54.5t-40 39t-61.5 36.5v17h338l848 -1061v829q0 51 -10 83t-30.5 55.5t-48.5 40t-65 36.5v17h406v-17q-37 -20 -64.5 -36.5t-47 -40t-30 -55.5t-10.5 -83v-1218h-28l-1028 1280v-1033 q0 -51 10 -82.5t30.5 -55t48 -40t64.5 -37.5v-16h-405zM436 1610q39 135 96.5 207.5t131.5 72.5q43 0 82.5 -20.5t77.5 -45t75 -45t72 -20.5q61 0 96 38t63 101h52q-39 -135 -96.5 -206.5t-131.5 -71.5q-43 0 -83 20.5t-78.5 44t-74.5 44t-71 20.5q-61 0 -96 -38t-64 -101 h-51z" />
<glyph unicode="&#xd2;" d="M96 717q0 162 53.5 297t148.5 233.5t225 152.5t284 54t284 -54t225 -152.5t148.5 -233.5t53.5 -297t-53.5 -297t-148.5 -233.5t-225 -152.5t-284 -54t-284 54t-225 152.5t-148.5 233.5t-53.5 297zM307 717q0 -145 34 -264t98.5 -204t157.5 -131t210 -46t209 46t156.5 131 t99.5 204t35 264t-35 264t-99.5 204t-156.5 131t-209 46t-210 -46t-157.5 -131t-98.5 -204t-34 -264zM489 1911h246l119 -336h-39z" />
<glyph unicode="&#xd3;" d="M96 717q0 162 53.5 297t148.5 233.5t225 152.5t284 54t284 -54t225 -152.5t148.5 -233.5t53.5 -297t-53.5 -297t-148.5 -233.5t-225 -152.5t-284 -54t-284 54t-225 152.5t-148.5 233.5t-53.5 297zM307 717q0 -145 34 -264t98.5 -204t157.5 -131t210 -46t209 46t156.5 131 t99.5 204t35 264t-35 264t-99.5 204t-156.5 131t-209 46t-210 -46t-157.5 -131t-98.5 -204t-34 -264zM768 1575l119 336h246l-326 -336h-39z" />
<glyph unicode="&#xd4;" d="M96 717q0 162 53.5 297t148.5 233.5t225 152.5t284 54t284 -54t225 -152.5t148.5 -233.5t53.5 -297t-53.5 -297t-148.5 -233.5t-225 -152.5t-284 -54t-284 54t-225 152.5t-148.5 233.5t-53.5 297zM307 717q0 -145 34 -264t98.5 -204t157.5 -131t210 -46t209 46t156.5 131 t99.5 204t35 264t-35 264t-99.5 204t-156.5 131t-209 46t-210 -46t-157.5 -131t-98.5 -204t-34 -264zM479 1569q41 37 86 84t87 98t78 101.5t58 93.5h37q23 -43 59 -93.5t78 -101.5t87 -98t86 -84h-66q-80 43 -141.5 86t-120.5 100q-59 -57 -120.5 -100t-141.5 -86h-66z" />
<glyph unicode="&#xd5;" d="M96 717q0 162 53.5 297t148.5 233.5t225 152.5t284 54t284 -54t225 -152.5t148.5 -233.5t53.5 -297t-53.5 -297t-148.5 -233.5t-225 -152.5t-284 -54t-284 54t-225 152.5t-148.5 233.5t-53.5 297zM307 717q0 -145 34 -264t98.5 -204t157.5 -131t210 -46t209 46t156.5 131 t99.5 204t35 264t-35 264t-99.5 204t-156.5 131t-209 46t-210 -46t-157.5 -131t-98.5 -204t-34 -264zM434 1610q39 135 96.5 207.5t131.5 72.5q43 0 82.5 -20.5t77.5 -45t75 -45t72 -20.5q61 0 96 38t63 101h52q-39 -135 -96.5 -206.5t-131.5 -71.5q-43 0 -83 20.5t-78.5 44 t-74.5 44t-71 20.5q-61 0 -96 -38t-64 -101h-51z" />
<glyph unicode="&#xd6;" d="M96 717q0 162 53.5 297t148.5 233.5t225 152.5t284 54t284 -54t225 -152.5t148.5 -233.5t53.5 -297t-53.5 -297t-148.5 -233.5t-225 -152.5t-284 -54t-284 54t-225 152.5t-148.5 233.5t-53.5 297zM307 717q0 -145 34 -264t98.5 -204t157.5 -131t210 -46t209 46t156.5 131 t99.5 204t35 264t-35 264t-99.5 204t-156.5 131t-209 46t-210 -46t-157.5 -131t-98.5 -204t-34 -264zM502 1720q0 49 33.5 85t87.5 36q51 0 85.5 -36t34.5 -85q0 -51 -34.5 -87t-85.5 -36q-53 0 -87 36t-34 87zM868 1720q0 49 36 85t87 36t86 -36t35 -85q0 -51 -35 -87 t-86 -36t-87 36t-36 87z" />
<glyph unicode="&#xd7;" horiz-adv-x="1052" d="M164 385l303 305l-303 303l67 70l299 -307l301 307l68 -70l-305 -303l305 -305l-68 -70l-301 308l-299 -308z" />
<glyph unicode="&#xd8;" d="M96 717q0 162 53.5 297t148.5 233.5t225 152.5t284 54q135 0 252 -42t209 -120l157 174l64 -55l-160 -180q90 -96 139.5 -227t49.5 -287q0 -162 -53.5 -297t-148.5 -233.5t-225 -152.5t-284 -54q-131 0 -244.5 40.5t-206.5 114.5l-180 -203l-63 56l180 205 q-92 98 -144.5 231t-52.5 293zM307 717q0 -119 26.5 -220.5t74.5 -179.5l757 863q-61 88 -151 135t-207 47t-210 -46t-157.5 -131t-98.5 -204t-34 -264zM455 244q63 -84 151 -128t201 -44q117 0 209 46t156.5 131t99.5 203.5t35 264.5q0 115 -25 211t-70 174z" />
<glyph unicode="&#xd9;" horiz-adv-x="1554" d="M68 1417v17h448v-17q-37 -20 -61.5 -36.5t-40 -39t-22.5 -54.5t-7 -83v-631q0 -244 110.5 -364.5t309.5 -120.5q100 0 183 27.5t141.5 86t91 150.5t32.5 219v631q0 51 -10 83t-30.5 55.5t-49 40t-65.5 36.5v17h407v-17q-37 -20 -64.5 -36.5t-46 -40t-28.5 -55.5t-10 -83 v-653q0 -141 -42 -247.5t-118 -178.5t-178.5 -107.5t-224.5 -35.5q-152 0 -263.5 39.5t-185.5 114.5t-109.5 180.5t-35.5 234.5v655q0 51 -7.5 83t-22.5 54.5t-40 39t-61 36.5zM479 1911h246l119 -336h-39z" />
<glyph unicode="&#xda;" horiz-adv-x="1554" d="M68 1417v17h448v-17q-37 -20 -61.5 -36.5t-40 -39t-22.5 -54.5t-7 -83v-631q0 -244 110.5 -364.5t309.5 -120.5q100 0 183 27.5t141.5 86t91 150.5t32.5 219v631q0 51 -10 83t-30.5 55.5t-49 40t-65.5 36.5v17h407v-17q-37 -20 -64.5 -36.5t-46 -40t-28.5 -55.5t-10 -83 v-653q0 -141 -42 -247.5t-118 -178.5t-178.5 -107.5t-224.5 -35.5q-152 0 -263.5 39.5t-185.5 114.5t-109.5 180.5t-35.5 234.5v655q0 51 -7.5 83t-22.5 54.5t-40 39t-61 36.5zM758 1575l119 336h245l-325 -336h-39z" />
<glyph unicode="&#xdb;" horiz-adv-x="1554" d="M68 1417v17h448v-17q-37 -20 -61.5 -36.5t-40 -39t-22.5 -54.5t-7 -83v-631q0 -244 110.5 -364.5t309.5 -120.5q100 0 183 27.5t141.5 86t91 150.5t32.5 219v631q0 51 -10 83t-30.5 55.5t-49 40t-65.5 36.5v17h407v-17q-37 -20 -64.5 -36.5t-46 -40t-28.5 -55.5t-10 -83 v-653q0 -141 -42 -247.5t-118 -178.5t-178.5 -107.5t-224.5 -35.5q-152 0 -263.5 39.5t-185.5 114.5t-109.5 180.5t-35.5 234.5v655q0 51 -7.5 83t-22.5 54.5t-40 39t-61 36.5zM469 1569q41 37 86 84t87 98t78 101.5t58 93.5h37q23 -43 58.5 -93.5t77.5 -101.5t87 -98 t86 -84h-65q-80 43 -141.5 86t-120.5 100q-59 -57 -121 -100t-141 -86h-66z" />
<glyph unicode="&#xdc;" horiz-adv-x="1554" d="M68 1417v17h448v-17q-37 -20 -61.5 -36.5t-40 -39t-22.5 -54.5t-7 -83v-631q0 -244 110.5 -364.5t309.5 -120.5q100 0 183 27.5t141.5 86t91 150.5t32.5 219v631q0 51 -10 83t-30.5 55.5t-49 40t-65.5 36.5v17h407v-17q-37 -20 -64.5 -36.5t-46 -40t-28.5 -55.5t-10 -83 v-653q0 -141 -42 -247.5t-118 -178.5t-178.5 -107.5t-224.5 -35.5q-152 0 -263.5 39.5t-185.5 114.5t-109.5 180.5t-35.5 234.5v655q0 51 -7.5 83t-22.5 54.5t-40 39t-61 36.5zM492 1720q0 49 33.5 85t86.5 36q51 0 86 -36t35 -85q0 -51 -35 -87t-86 -36q-53 0 -86.5 36 t-33.5 87zM858 1720q0 49 36 85t87 36t86 -36t35 -85q0 -51 -35 -87t-86 -36t-87 36t-36 87z" />
<glyph unicode="&#xdd;" horiz-adv-x="1384" d="M25 1417v17h417v-17q-41 -25 -54 -45t-13 -49q0 -47 31 -92l335 -533l334 533q16 25 22.5 46t6.5 34q0 29 -27.5 52t-77.5 54v17h361v-17q-31 -23 -55.5 -44t-46 -45.5t-43 -54.5t-46.5 -69l-385 -606v-369q0 -51 7.5 -82.5t25 -54t45 -39t70.5 -37.5v-16h-479v16 q43 20 70.5 37t45 39.5t24.5 54t7 82.5v369l-385 606q-25 39 -46.5 69t-43 54.5t-46 46t-54.5 43.5zM670 1575l118 336h246l-325 -336h-39z" />
<glyph unicode="&#xde;" horiz-adv-x="1318" d="M96 0v16q37 20 61.5 37t40 39.5t21.5 54t6 82.5v975q0 51 -6 83t-21.5 54.5t-40 39t-61.5 36.5v17h447v-17q-37 -20 -61.5 -36.5t-40 -39t-22.5 -54.5t-7 -83v-51h305q125 0 225 -25.5t171 -77t109 -130t38 -183.5q0 -106 -39 -184t-110 -130t-171 -78t-223 -26h-305v-90 q0 -49 10 -81.5t32.5 -55t56.5 -39t81 -37.5v-16h-496zM412 399h270q190 0 285.5 82t95.5 256t-95.5 255t-285.5 81h-270v-674z" />
<glyph unicode="&#xdf;" horiz-adv-x="1353" d="M66 905v58l143 41v47q0 125 42 217t110.5 152.5t157.5 90t183 29.5q78 0 148 -19.5t122 -56.5t82.5 -91t30.5 -122q0 -49 -13 -87t-37.5 -69.5t-57.5 -59t-72 -54.5q-80 -53 -108.5 -88t-28.5 -82q0 -29 12.5 -50.5t40 -44t72.5 -49t111 -61.5q72 -39 123 -70.5 t84.5 -67.5t50 -80t16.5 -105q0 -63 -24.5 -118.5t-68.5 -96.5t-105.5 -64.5t-135.5 -23.5q-78 0 -140.5 26.5t-111.5 59.5l-71 -89h-17l-22 379h26q80 -145 160 -217.5t178 -72.5q92 0 136 45t44 118q0 43 -18 74t-51 57.5t-79 50t-101 50.5q-78 37 -126.5 69.5t-77 65.5 t-38.5 68.5t-10 78.5q0 82 53 145.5t147 143.5q63 55 87 105.5t24 113.5q0 90 -61.5 149.5t-178.5 59.5q-61 0 -117.5 -22.5t-99.5 -69.5t-67.5 -117.5t-24.5 -169.5v-1081h-295v14q33 20 55.5 37t36 38.5t19.5 52t6 81.5v682h-143z" />
<glyph unicode="&#xe0;" horiz-adv-x="1110" d="M92 233q0 82 40 137.5t107.5 92.5t154.5 60.5t179 39.5l164 29v78q0 143 -52 204.5t-173 61.5q-92 0 -143.5 -42t-51.5 -116q0 -35 10.5 -57.5t26.5 -42.5q-16 -14 -43.5 -22.5t-56.5 -8.5q-51 0 -83 30t-32 89q0 49 28 94t79 80t124.5 55.5t166.5 20.5q385 0 385 -340 q0 -137 -3.5 -251t-3.5 -208q0 -88 48.5 -125t152.5 -45v-27q-35 -12 -82 -23t-100 -11q-94 0 -141.5 52t-51.5 165q-35 -98 -131 -160.5t-223 -62.5q-61 0 -115.5 16t-94.5 48t-62.5 79t-22.5 110zM209 1534h227l137 -385h-38zM281 254q0 -86 48 -127t132 -41q49 0 98 20.5 t89 62.5t64.5 103.5t24.5 143.5v106l-149 -30q-150 -29 -228.5 -80.5t-78.5 -157.5z" />
<glyph unicode="&#xe1;" horiz-adv-x="1110" d="M92 233q0 82 40 137.5t107.5 92.5t154.5 60.5t179 39.5l164 29v78q0 143 -52 204.5t-173 61.5q-92 0 -143.5 -42t-51.5 -116q0 -35 10.5 -57.5t26.5 -42.5q-16 -14 -43.5 -22.5t-56.5 -8.5q-51 0 -83 30t-32 89q0 49 28 94t79 80t124.5 55.5t166.5 20.5q385 0 385 -340 q0 -137 -3.5 -251t-3.5 -208q0 -88 48.5 -125t152.5 -45v-27q-35 -12 -82 -23t-100 -11q-94 0 -141.5 52t-51.5 165q-35 -98 -131 -160.5t-223 -62.5q-61 0 -115.5 16t-94.5 48t-62.5 79t-22.5 110zM281 254q0 -86 48 -127t132 -41q49 0 98 20.5t89 62.5t64.5 103.5 t24.5 143.5v106l-149 -30q-150 -29 -228.5 -80.5t-78.5 -157.5zM502 1149l137 385h227l-325 -385h-39z" />
<glyph unicode="&#xe2;" horiz-adv-x="1110" d="M92 233q0 82 40 137.5t107.5 92.5t154.5 60.5t179 39.5l164 29v78q0 143 -52 204.5t-173 61.5q-92 0 -143.5 -42t-51.5 -116q0 -35 10.5 -57.5t26.5 -42.5q-16 -14 -43.5 -22.5t-56.5 -8.5q-51 0 -83 30t-32 89q0 49 28 94t79 80t124.5 55.5t166.5 20.5q385 0 385 -340 q0 -137 -3.5 -251t-3.5 -208q0 -88 48.5 -125t152.5 -45v-27q-35 -12 -82 -23t-100 -11q-94 0 -141.5 52t-51.5 165q-35 -98 -131 -160.5t-223 -62.5q-61 0 -115.5 16t-94.5 48t-62.5 79t-22.5 110zM219 1130q43 43 87 96.5t85 111t75 112.5t56 98h33q23 -43 56.5 -98 t74.5 -112.5t85 -110.5t87 -97h-57q-78 45 -140.5 99.5t-121.5 111.5q-59 -57 -122 -111t-141 -100h-57zM281 254q0 -86 48 -127t132 -41q49 0 98 20.5t89 62.5t64.5 103.5t24.5 143.5v106l-149 -30q-150 -29 -228.5 -80.5t-78.5 -157.5z" />
<glyph unicode="&#xe3;" horiz-adv-x="1110" d="M92 233q0 82 40 137.5t107.5 92.5t154.5 60.5t179 39.5l164 29v78q0 143 -52 204.5t-173 61.5q-92 0 -143.5 -42t-51.5 -116q0 -35 10.5 -57.5t26.5 -42.5q-16 -14 -43.5 -22.5t-56.5 -8.5q-51 0 -83 30t-32 89q0 49 28 94t79 80t124.5 55.5t166.5 20.5q385 0 385 -340 q0 -137 -3.5 -251t-3.5 -208q0 -88 48.5 -125t152.5 -45v-27q-35 -12 -82 -23t-100 -11q-94 0 -141.5 52t-51.5 165q-35 -98 -131 -160.5t-223 -62.5q-61 0 -115.5 16t-94.5 48t-62.5 79t-22.5 110zM178 1184q39 135 94.5 206.5t128.5 71.5q41 0 80 -20.5t77 -45t74 -45 t68 -20.5q61 0 94 38t62 101h51q-39 -135 -94 -206.5t-129 -71.5q-41 0 -80 20.5t-77 45t-73.5 45t-68.5 20.5q-61 0 -94 -38t-62 -101h-51zM281 254q0 -86 48 -127t132 -41q49 0 98 20.5t89 62.5t64.5 103.5t24.5 143.5v106l-149 -30q-150 -29 -228.5 -80.5t-78.5 -157.5z " />
<glyph unicode="&#xe4;" horiz-adv-x="1110" d="M92 233q0 82 40 137.5t107.5 92.5t154.5 60.5t179 39.5l164 29v78q0 143 -52 204.5t-173 61.5q-92 0 -143.5 -42t-51.5 -116q0 -35 10.5 -57.5t26.5 -42.5q-16 -14 -43.5 -22.5t-56.5 -8.5q-51 0 -83 30t-32 89q0 49 28 94t79 80t124.5 55.5t166.5 20.5q385 0 385 -340 q0 -137 -3.5 -251t-3.5 -208q0 -88 48.5 -125t152.5 -45v-27q-35 -12 -82 -23t-100 -11q-94 0 -141.5 52t-51.5 165q-35 -98 -131 -160.5t-223 -62.5q-61 0 -115.5 16t-94.5 48t-62.5 79t-22.5 110zM233 1311q0 49 34 85t87 36q51 0 86 -36t35 -85q0 -51 -35 -87t-86 -36 q-53 0 -87 36t-34 87zM281 254q0 -86 48 -127t132 -41q49 0 98 20.5t89 62.5t64.5 103.5t24.5 143.5v106l-149 -30q-150 -29 -228.5 -80.5t-78.5 -157.5zM600 1311q0 49 36 85t87 36t86 -36t35 -85q0 -51 -35 -87t-86 -36t-87 36t-36 87z" />
<glyph unicode="&#xe5;" horiz-adv-x="1110" d="M92 233q0 82 40 137.5t107.5 92.5t154.5 60.5t179 39.5l164 29v78q0 143 -52 204.5t-173 61.5q-92 0 -143.5 -42t-51.5 -116q0 -35 10.5 -57.5t26.5 -42.5q-16 -14 -43.5 -22.5t-56.5 -8.5q-51 0 -83 30t-32 89q0 49 28 94t79 80t124.5 55.5t166.5 20.5q385 0 385 -340 q0 -137 -3.5 -251t-3.5 -208q0 -88 48.5 -125t152.5 -45v-27q-35 -12 -82 -23t-100 -11q-94 0 -141.5 52t-51.5 165q-35 -98 -131 -160.5t-223 -62.5q-61 0 -115.5 16t-94.5 48t-62.5 79t-22.5 110zM281 254q0 -86 48 -127t132 -41q49 0 98 20.5t89 62.5t64.5 103.5 t24.5 143.5v106l-149 -30q-150 -29 -228.5 -80.5t-78.5 -157.5zM319 1358q0 43 17.5 83t47.5 68.5t70 46t85 17.5t85 -17.5t69.5 -46t47 -68.5t17.5 -83q0 -45 -17.5 -85t-47 -68.5t-69.5 -46t-85 -17.5t-85 17.5t-70 46t-47.5 68.5t-17.5 85zM412 1358q0 -57 34.5 -92 t92.5 -35q57 0 92 35t35 92q0 55 -35 92t-92 37t-92 -37t-35 -92z" />
<glyph unicode="&#xe6;" horiz-adv-x="1728" d="M92 233q0 80 42 138.5t110.5 97.5t154.5 61.5t174 34.5l164 23v80q0 139 -52 203.5t-173 64.5q-92 0 -143.5 -42t-51.5 -116q0 -35 10.5 -57.5t26.5 -42.5q-16 -14 -43.5 -22.5t-56.5 -8.5q-51 0 -83 30t-32 89q0 49 28 94t78 80t123.5 55.5t166.5 20.5q129 0 210.5 -49 t116.5 -140q55 86 141.5 137.5t200.5 51.5q211 0 327 -131t116 -369h-727q0 -199 91 -312.5t253 -113.5q117 0 199.5 56.5t129.5 177.5l41 -15q-35 -158 -142.5 -243.5t-281.5 -85.5q-137 0 -245.5 59t-167.5 176q-23 -45 -60 -87t-86 -75t-109.5 -53t-127.5 -20 q-143 0 -232.5 63t-89.5 190zM281 254q0 -80 47 -124t118 -44q59 0 112.5 20.5t93.5 62.5t62.5 103.5t22.5 143.5v98l-149 -22q-141 -20 -224 -75t-83 -163zM922 594h532q-2 66 -14.5 127t-41 108.5t-75.5 76t-121 28.5q-123 0 -193.5 -93t-86.5 -247z" />
<glyph unicode="&#xe7;" horiz-adv-x="1042" d="M84 483q0 121 39 219.5t107.5 168t160.5 107.5t197 38q78 0 143.5 -18.5t113.5 -52.5t75.5 -79t27.5 -100q0 -37 -12 -60.5t-31.5 -39t-43 -21.5t-46.5 -6q-14 0 -29.5 3t-23.5 11q8 20 14 37t6 51q0 80 -46 136.5t-146 56.5q-74 0 -132.5 -33t-98.5 -90t-60 -134 t-20 -165q0 -199 89 -309.5t242 -110.5q109 0 192 56.5t128 175.5l39 -17q-35 -154 -139.5 -240.5t-272.5 -86.5h-2l-43 -97q109 -4 178.5 -46t69.5 -120q0 -82 -68 -127t-166 -45q-78 0 -137 31t-86 78l31 41q68 -74 162 -74q47 0 79.5 23.5t32.5 72.5q0 113 -196 119 l69 150q-86 12 -158.5 50t-126 101.5t-83 150.5t-29.5 195z" />
<glyph unicode="&#xe8;" horiz-adv-x="1085" d="M84 485q0 121 38 219.5t102.5 167t151.5 106.5t185 38q211 0 327 -131t116 -369h-728q0 -199 91.5 -312.5t255.5 -113.5q117 0 199.5 56.5t127.5 177.5l43 -15q-35 -158 -142.5 -243.5t-281.5 -85.5q-100 0 -188 33.5t-154.5 98t-104.5 159t-38 214.5zM231 1534h228 l137 -385h-39zM281 594h530q-2 66 -14.5 127t-41 108.5t-75.5 76t-121 28.5q-123 0 -193.5 -93t-84.5 -247z" />
<glyph unicode="&#xe9;" horiz-adv-x="1085" d="M84 485q0 121 38 219.5t102.5 167t151.5 106.5t185 38q211 0 327 -131t116 -369h-728q0 -199 91.5 -312.5t255.5 -113.5q117 0 199.5 56.5t127.5 177.5l43 -15q-35 -158 -142.5 -243.5t-281.5 -85.5q-100 0 -188 33.5t-154.5 98t-104.5 159t-38 214.5zM281 594h530 q-2 66 -14.5 127t-41 108.5t-75.5 76t-121 28.5q-123 0 -193.5 -93t-84.5 -247zM526 1149l138 385h227l-326 -385h-39z" />
<glyph unicode="&#xea;" horiz-adv-x="1085" d="M84 485q0 121 38 219.5t102.5 167t151.5 106.5t185 38q211 0 327 -131t116 -369h-728q0 -199 91.5 -312.5t255.5 -113.5q117 0 199.5 56.5t127.5 177.5l43 -15q-35 -158 -142.5 -243.5t-281.5 -85.5q-100 0 -188 33.5t-154.5 98t-104.5 159t-38 214.5zM244 1130 q43 43 87 96.5t85 111t74.5 112.5t56.5 98h33q23 -43 56.5 -98t74.5 -112.5t85 -110.5t87 -97h-58q-78 45 -140 99.5t-122 111.5q-59 -57 -121.5 -111t-140.5 -100h-57zM281 594h530q-2 66 -14.5 127t-41 108.5t-75.5 76t-121 28.5q-123 0 -193.5 -93t-84.5 -247z" />
<glyph unicode="&#xeb;" horiz-adv-x="1085" d="M84 485q0 121 38 219.5t102.5 167t151.5 106.5t185 38q211 0 327 -131t116 -369h-728q0 -199 91.5 -312.5t255.5 -113.5q117 0 199.5 56.5t127.5 177.5l43 -15q-35 -158 -142.5 -243.5t-281.5 -85.5q-100 0 -188 33.5t-154.5 98t-104.5 159t-38 214.5zM258 1311 q0 49 34 85t87 36q51 0 86 -36t35 -85q0 -51 -35 -87t-86 -36q-53 0 -87 36t-34 87zM281 594h530q-2 66 -14.5 127t-41 108.5t-75.5 76t-121 28.5q-123 0 -193.5 -93t-84.5 -247zM625 1311q0 49 35.5 85t87.5 36q51 0 85.5 -36t34.5 -85q0 -51 -34.5 -87t-85.5 -36t-87 36 t-36 87z" />
<glyph unicode="&#xec;" horiz-adv-x="575" d="M-43 1534h227l138 -385h-39zM72 983v12h315v-772q0 -51 6 -81.5t19.5 -52t36 -38t55.5 -37.5v-14h-412v14q33 20 55.5 37t36 38.5t19.5 52t6 81.5v561q0 41 -10.5 71t-28.5 52.5t-44 40t-54 35.5z" />
<glyph unicode="&#xed;" horiz-adv-x="575" d="M72 983v12h315v-772q0 -51 6 -81.5t19.5 -52t36 -38t55.5 -37.5v-14h-412v14q33 20 55.5 37t36 38.5t19.5 52t6 81.5v561q0 41 -10.5 71t-28.5 52.5t-44 40t-54 35.5zM252 1149l137 385h227l-325 -385h-39z" />
<glyph unicode="&#xee;" horiz-adv-x="575" d="M-31 1130q43 43 87 96.5t85 111t75 112.5t56 98h33q23 -43 56.5 -98t74.5 -112.5t85 -110.5t87 -97h-57q-78 45 -140.5 99.5t-121.5 111.5q-59 -57 -122 -111t-140 -100h-58zM72 983v12h315v-772q0 -51 6 -81.5t19.5 -52t36 -38t55.5 -37.5v-14h-412v14q33 20 55.5 37 t36 38.5t19.5 52t6 81.5v561q0 41 -10.5 71t-28.5 52.5t-44 40t-54 35.5z" />
<glyph unicode="&#xef;" horiz-adv-x="575" d="M-16 1311q0 49 33.5 85t86.5 36q51 0 86 -36t35 -85q0 -51 -35 -87t-86 -36q-53 0 -86.5 36t-33.5 87zM72 983v12h315v-772q0 -51 6 -81.5t19.5 -52t36 -38t55.5 -37.5v-14h-412v14q33 20 55.5 37t36 38.5t19.5 52t6 81.5v561q0 41 -10.5 71t-28.5 52.5t-44 40t-54 35.5z M350 1311q0 49 36 85t87 36t86 -36t35 -85q0 -51 -35 -87t-86 -36t-87 36t-36 87z" />
<glyph unicode="&#xf0;" horiz-adv-x="1169" d="M84 498q0 113 38 208t104.5 164.5t156.5 107.5t197 38q70 0 146.5 -30t123.5 -91q-12 70 -63.5 176.5t-157.5 208.5l-264 -131l-33 65l237 119q-68 53 -153.5 95t-194.5 69l8 57q131 -16 243 -59t204 -109l201 101l32 -66l-168 -84q166 -139 254 -339.5t88 -432.5 q0 -135 -37.5 -243.5t-104.5 -184.5t-159 -116.5t-198 -40.5q-109 0 -200 37.5t-157.5 107.5t-104.5 164t-38 209zM283 498q0 -203 75.5 -319t225.5 -116t225.5 116t75.5 319t-76 318.5t-225 115.5q-150 0 -225.5 -116t-75.5 -318z" />
<glyph unicode="&#xf1;" horiz-adv-x="1255" d="M72 983v12h307l8 -247q45 129 138 198.5t223 69.5q158 0 238.5 -95.5t80.5 -261.5v-436q0 -51 6 -81.5t19.5 -52t36 -38t55.5 -37.5v-14h-412v14q33 20 55.5 37t36 38.5t19.5 52t6 81.5v406q0 51 -11.5 98t-36 83t-65.5 57.5t-102 21.5q-57 0 -109.5 -23.5t-91.5 -69.5 t-62.5 -115t-23.5 -157v-301q0 -51 6 -81.5t19.5 -52t36 -38t55.5 -37.5v-14h-412v14q33 20 55.5 37t36 38.5t19.5 52t6 81.5v561q0 41 -10.5 71t-28.5 52.5t-44 40t-54 35.5zM272 1184q39 135 94.5 206.5t129.5 71.5q41 0 79.5 -20.5t76.5 -45t74 -45t69 -20.5q61 0 94 38 t61 101h51q-39 -135 -94 -206.5t-129 -71.5q-41 0 -80 20.5t-76.5 45t-73.5 45t-69 20.5q-61 0 -94 -38t-61 -101h-52z" />
<glyph unicode="&#xf2;" horiz-adv-x="1167" d="M84 498q0 113 38 208t104.5 164.5t157.5 107.5t200 38q106 0 198 -38t159 -107.5t104.5 -164.5t37.5 -208q0 -115 -37.5 -209t-104.5 -164t-159 -107.5t-198 -37.5q-109 0 -200 37.5t-157.5 107.5t-104.5 164t-38 209zM252 1534h227l137 -385h-38zM283 498 q0 -203 75.5 -319t225.5 -116t225.5 116t75.5 319t-76 318.5t-225 115.5q-150 0 -225.5 -116t-75.5 -318z" />
<glyph unicode="&#xf3;" horiz-adv-x="1167" d="M84 498q0 113 38 208t104.5 164.5t157.5 107.5t200 38q106 0 198 -38t159 -107.5t104.5 -164.5t37.5 -208q0 -115 -37.5 -209t-104.5 -164t-159 -107.5t-198 -37.5q-109 0 -200 37.5t-157.5 107.5t-104.5 164t-38 209zM283 498q0 -203 75.5 -319t225.5 -116t225.5 116 t75.5 319t-76 318.5t-225 115.5q-150 0 -225.5 -116t-75.5 -318zM547 1149l137 385h227l-325 -385h-39z" />
<glyph unicode="&#xf4;" horiz-adv-x="1167" d="M84 498q0 113 38 208t104.5 164.5t157.5 107.5t200 38q106 0 198 -38t159 -107.5t104.5 -164.5t37.5 -208q0 -115 -37.5 -209t-104.5 -164t-159 -107.5t-198 -37.5q-109 0 -200 37.5t-157.5 107.5t-104.5 164t-38 209zM264 1130q43 43 87 96.5t85 111t75 112.5t56 98h33 q23 -43 56.5 -98t74.5 -112.5t85 -110.5t87 -97h-57q-78 45 -140.5 99.5t-121.5 111.5q-59 -57 -122 -111t-140 -100h-58zM283 498q0 -203 75.5 -319t225.5 -116t225.5 116t75.5 319t-76 318.5t-225 115.5q-150 0 -225.5 -116t-75.5 -318z" />
<glyph unicode="&#xf5;" horiz-adv-x="1167" d="M84 498q0 113 38 208t104.5 164.5t157.5 107.5t200 38q106 0 198 -38t159 -107.5t104.5 -164.5t37.5 -208q0 -115 -37.5 -209t-104.5 -164t-159 -107.5t-198 -37.5q-109 0 -200 37.5t-157.5 107.5t-104.5 164t-38 209zM219 1184q39 135 94.5 206.5t128.5 71.5 q41 0 80 -20.5t77 -45t74 -45t68 -20.5q61 0 94 38t62 101h51q-39 -135 -94 -206.5t-129 -71.5q-41 0 -80 20.5t-77 45t-73.5 45t-68.5 20.5q-61 0 -94 -38t-62 -101h-51zM283 498q0 -203 75.5 -319t225.5 -116t225.5 116t75.5 319t-76 318.5t-225 115.5q-150 0 -225.5 -116 t-75.5 -318z" />
<glyph unicode="&#xf6;" horiz-adv-x="1167" d="M84 498q0 113 38 208t104.5 164.5t157.5 107.5t200 38q106 0 198 -38t159 -107.5t104.5 -164.5t37.5 -208q0 -115 -37.5 -209t-104.5 -164t-159 -107.5t-198 -37.5q-109 0 -200 37.5t-157.5 107.5t-104.5 164t-38 209zM279 1311q0 49 33.5 85t86.5 36q51 0 86 -36t35 -85 q0 -51 -35 -87t-86 -36q-53 0 -86.5 36t-33.5 87zM283 498q0 -203 75.5 -319t225.5 -116t225.5 116t75.5 319t-76 318.5t-225 115.5q-150 0 -225.5 -116t-75.5 -318zM645 1311q0 49 36 85t87 36t86 -36t35 -85q0 -51 -35 -87t-86 -36t-87 36t-36 87z" />
<glyph unicode="&#xf7;" horiz-adv-x="1224" d="M145 647v98h934v-98h-934zM522 322q0 41 26.5 67.5t65.5 26.5q41 0 68 -27t27 -67q0 -39 -27 -66t-68 -27q-39 0 -65.5 27t-26.5 66zM522 1069q0 41 26.5 67.5t65.5 26.5q41 0 68 -26.5t27 -67.5t-27 -67.5t-68 -26.5q-39 0 -65.5 26.5t-26.5 67.5z" />
<glyph unicode="&#xf8;" horiz-adv-x="1189" d="M94 498q0 113 38 208t104.5 164.5t158.5 107.5t201 38q92 0 170 -27.5t141 -77.5l129 148l58 -53l-127 -148q59 -68 94 -159.5t35 -200.5q0 -115 -38 -209t-104.5 -164t-159 -107.5t-198.5 -37.5q-90 0 -167 25.5t-140 72.5l-131 -150l-58 54l129 149q-63 70 -99 163 t-36 204zM293 498q0 -72 12 -133.5t37 -108.5l473 553q-76 123 -219 123q-152 0 -227.5 -116t-75.5 -318zM379 180q74 -117 217 -117q150 0 225.5 116t75.5 319q0 143 -45 233z" />
<glyph unicode="&#xf9;" horiz-adv-x="1224" d="M51 983v12h316v-626q0 -51 11 -98.5t35.5 -84t65.5 -59.5t101 -23q57 0 108 25t90 72t60.5 114.5t21.5 155.5v313q0 41 -10 71t-28.5 52.5t-44 40t-56.5 35.5v12h317v-772q0 -51 6.5 -81.5t19.5 -52t35.5 -38t55.5 -37.5v-14h-295v252q-43 -133 -133 -202.5t-221 -69.5 q-154 0 -236 94t-82 260v450q0 41 -10 71t-28.5 52.5t-44 40t-54.5 35.5zM270 1534h228l137 -385h-39z" />
<glyph unicode="&#xfa;" horiz-adv-x="1224" d="M51 983v12h316v-626q0 -51 11 -98.5t35.5 -84t65.5 -59.5t101 -23q57 0 108 25t90 72t60.5 114.5t21.5 155.5v313q0 41 -10 71t-28.5 52.5t-44 40t-56.5 35.5v12h317v-772q0 -51 6.5 -81.5t19.5 -52t35.5 -38t55.5 -37.5v-14h-295v252q-43 -133 -133 -202.5t-221 -69.5 q-154 0 -236 94t-82 260v450q0 41 -10 71t-28.5 52.5t-44 40t-54.5 35.5zM565 1149l137 385h228l-326 -385h-39z" />
<glyph unicode="&#xfb;" horiz-adv-x="1224" d="M51 983v12h316v-626q0 -51 11 -98.5t35.5 -84t65.5 -59.5t101 -23q57 0 108 25t90 72t60.5 114.5t21.5 155.5v313q0 41 -10 71t-28.5 52.5t-44 40t-56.5 35.5v12h317v-772q0 -51 6.5 -81.5t19.5 -52t35.5 -38t55.5 -37.5v-14h-295v252q-43 -133 -133 -202.5t-221 -69.5 q-154 0 -236 94t-82 260v450q0 41 -10 71t-28.5 52.5t-44 40t-54.5 35.5zM283 1130q43 43 87 96.5t85 111t74.5 112.5t56.5 98h32q23 -43 57 -98t75 -112.5t85 -110.5t87 -97h-58q-78 45 -140 99.5t-122 111.5q-59 -57 -121.5 -111t-140.5 -100h-57z" />
<glyph unicode="&#xfc;" horiz-adv-x="1224" d="M51 983v12h316v-626q0 -51 11 -98.5t35.5 -84t65.5 -59.5t101 -23q57 0 108 25t90 72t60.5 114.5t21.5 155.5v313q0 41 -10 71t-28.5 52.5t-44 40t-56.5 35.5v12h317v-772q0 -51 6.5 -81.5t19.5 -52t35.5 -38t55.5 -37.5v-14h-295v252q-43 -133 -133 -202.5t-221 -69.5 q-154 0 -236 94t-82 260v450q0 41 -10 71t-28.5 52.5t-44 40t-54.5 35.5zM297 1311q0 49 34 85t87 36q51 0 86 -36t35 -85q0 -51 -35 -87t-86 -36q-53 0 -87 36t-34 87zM664 1311q0 49 35.5 85t86.5 36t86 -36t35 -85q0 -51 -35 -87t-86 -36t-86.5 36t-35.5 87z" />
<glyph unicode="&#xfd;" horiz-adv-x="1058" d="M-6 983v12h381v-12q-39 -27 -56.5 -44t-17.5 -40q0 -27 10.5 -52.5t30.5 -72.5l242 -573l227 565q16 41 23.5 65.5t7.5 47.5q0 29 -29 52t-80 52v12h332v-12q-25 -23 -45.5 -43t-39.5 -46t-37.5 -59.5t-39.5 -80.5l-397 -936q-25 -61 -50.5 -112.5t-58 -88.5t-74.5 -57.5 t-100 -20.5q-72 0 -119 41t-47 107q0 51 37 88t88 45q-4 -10 -6 -24.5t-2 -24.5q0 -41 24.5 -69t65.5 -28q55 0 92 45t74 131l66 146l-334 758q-20 47 -40 80.5t-40.5 59.5t-42 46.5t-45.5 42.5zM535 1149l137 385h227l-326 -385h-38z" />
<glyph unicode="&#xfe;" horiz-adv-x="1261" d="M47 1520v14h320v-784q18 55 51 103t80 85t106.5 57.5t130.5 20.5q94 0 175 -34t140.5 -97.5t93.5 -157.5t34 -213q0 -123 -38 -222t-101.5 -168t-147.5 -106.5t-178 -37.5q-139 0 -224.5 59t-121.5 139v-395q0 -51 6 -82t19.5 -52.5t36 -38t54.5 -36.5v-14h-413v14 q33 20 55 36.5t35.5 38t19.5 52.5t6 82v1538q0 43 -10 71.5t-28.5 51t-44 40t-56.5 36.5zM367 399q0 -82 27.5 -141t70.5 -98t96 -58.5t105 -19.5q141 0 229 112.5t88 319.5q0 178 -83 284.5t-228 106.5q-70 0 -126.5 -30.5t-96 -81t-61 -118t-21.5 -140.5v-136z" />
<glyph unicode="&#xff;" horiz-adv-x="1058" d="M-6 983v12h381v-12q-39 -27 -56.5 -44t-17.5 -40q0 -27 10.5 -52.5t30.5 -72.5l242 -573l227 565q16 41 23.5 65.5t7.5 47.5q0 29 -29 52t-80 52v12h332v-12q-25 -23 -45.5 -43t-39.5 -46t-37.5 -59.5t-39.5 -80.5l-397 -936q-25 -61 -50.5 -112.5t-58 -88.5t-74.5 -57.5 t-100 -20.5q-72 0 -119 41t-47 107q0 51 37 88t88 45q-4 -10 -6 -24.5t-2 -24.5q0 -41 24.5 -69t65.5 -28q55 0 92 45t74 131l66 146l-334 758q-20 47 -40 80.5t-40.5 59.5t-42 46.5t-45.5 42.5zM268 1311q0 49 34 85t87 36q51 0 86 -36t35 -85q0 -51 -35 -87t-86 -36 q-53 0 -87 36t-34 87zM635 1311q0 49 36 85t87 36t86 -36t35 -85q0 -51 -35 -87t-86 -36t-87 36t-36 87z" />
<glyph unicode="&#x152;" horiz-adv-x="2220" d="M96 719q0 164 56.5 296t161 225t253 143.5t332.5 50.5h989q47 0 74 4t49 8l70 -326h-17q-49 57 -88 101.5t-84 74t-103 44t-147 14.5h-356v-578h293q61 0 101 6t68 25.5t49.5 58.5t45.5 107h19v-473h-19q-25 68 -46 106.5t-49 59t-68 25.5t-101 5h-293v-616h404 q84 0 144 14.5t108.5 46t91.5 83.5t92 126h16l-65 -350h-1186q-180 0 -326.5 49t-251 142.5t-161 226.5t-56.5 301zM303 719q0 -299 155.5 -468t448.5 -169h193v1270h-187q-147 0 -260.5 -45t-191.5 -127t-118 -200t-40 -261z" />
<glyph unicode="&#x153;" horiz-adv-x="1867" d="M84 498q0 113 38 208t104.5 164.5t157.5 107.5t200 38q125 0 226 -58.5t167 -158.5q66 102 162 159.5t213 57.5q211 0 326.5 -131t115.5 -369h-727q0 -199 91 -312.5t253 -113.5q117 0 200 56.5t130 177.5l41 -15q-35 -158 -142.5 -243.5t-281.5 -85.5q-119 0 -219.5 55 t-165.5 155q-66 -96 -166 -153t-223 -57q-109 0 -200 37.5t-157.5 107.5t-104.5 164t-38 209zM283 498q0 -203 75.5 -319t225.5 -116t225.5 116t75.5 319t-76 318.5t-225 115.5q-150 0 -225.5 -116t-75.5 -318zM1069 594h533q-2 66 -14.5 127t-41 108.5t-76 76t-120.5 28.5 q-123 0 -194 -93t-87 -247z" />
<glyph unicode="&#x178;" horiz-adv-x="1384" d="M25 1417v17h417v-17q-41 -25 -54 -45t-13 -49q0 -47 31 -92l335 -533l334 533q16 25 22.5 46t6.5 34q0 29 -27.5 52t-77.5 54v17h361v-17q-31 -23 -55.5 -44t-46 -45.5t-43 -54.5t-46.5 -69l-385 -606v-369q0 -51 7.5 -82.5t25 -54t45 -39t70.5 -37.5v-16h-479v16 q43 20 70.5 37t45 39.5t24.5 54t7 82.5v369l-385 606q-25 39 -46.5 69t-43 54.5t-46 46t-54.5 43.5zM403 1720q0 49 34 85t87 36q51 0 86 -36t35 -85q0 -51 -35 -87t-86 -36q-53 0 -87 36t-34 87zM770 1720q0 49 36 85t87 36t86 -36t35 -85q0 -51 -35 -87t-86 -36t-87 36 t-36 87z" />
<glyph unicode="&#x2c6;" horiz-adv-x="1024" d="M193 1130q43 43 87 96.5t85 111t74.5 112.5t56.5 98h32q23 -43 56.5 -98t74.5 -112.5t85 -110.5t87 -97h-57q-78 45 -140.5 99.5t-121.5 111.5q-59 -57 -121.5 -111t-140.5 -100h-57z" />
<glyph unicode="&#x2dc;" horiz-adv-x="1024" d="M147 1184q39 135 94.5 206.5t129.5 71.5q41 0 79.5 -20.5t76.5 -45t74 -45t69 -20.5q61 0 94 38t61 101h52q-39 -135 -94.5 -206.5t-129.5 -71.5q-41 0 -79.5 20.5t-76.5 45t-74 45t-69 20.5q-61 0 -94 -38t-61 -101h-52z" />
<glyph unicode="&#x2000;" horiz-adv-x="973" />
<glyph unicode="&#x2001;" horiz-adv-x="1946" />
<glyph unicode="&#x2002;" horiz-adv-x="973" />
<glyph unicode="&#x2003;" horiz-adv-x="1946" />
<glyph unicode="&#x2004;" horiz-adv-x="648" />
<glyph unicode="&#x2005;" horiz-adv-x="486" />
<glyph unicode="&#x2006;" horiz-adv-x="324" />
<glyph unicode="&#x2007;" horiz-adv-x="324" />
<glyph unicode="&#x2008;" horiz-adv-x="243" />
<glyph unicode="&#x2009;" horiz-adv-x="389" />
<glyph unicode="&#x200a;" horiz-adv-x="108" />
<glyph unicode="&#x2010;" horiz-adv-x="714" d="M102 510v104h510v-104h-510z" />
<glyph unicode="&#x2011;" horiz-adv-x="714" d="M102 510v104h510v-104h-510z" />
<glyph unicode="&#x2012;" horiz-adv-x="714" d="M102 510v104h510v-104h-510z" />
<glyph unicode="&#x2013;" horiz-adv-x="1064" d="M102 518v88h861v-88h-861z" />
<glyph unicode="&#x2014;" horiz-adv-x="1679" d="M102 518v88h1475v-88h-1475z" />
<glyph unicode="&#x2018;" horiz-adv-x="522" d="M102 1149q0 68 24 127t69 104t109.5 73t146.5 34v-53q-117 -23 -183.5 -95t-60.5 -176q33 27 84 27q47 0 79.5 -34t32.5 -81q0 -55 -35.5 -90t-93.5 -35q-78 0 -125 52.5t-47 146.5z" />
<glyph unicode="&#x2019;" horiz-adv-x="522" d="M80 938v53q117 23 183.5 95t60.5 176q-33 -27 -84 -27q-47 0 -80 34t-33 81q0 55 36 90t93 35q78 0 125 -52.5t47 -146.5q0 -68 -23.5 -127t-68.5 -104.5t-109.5 -73t-146.5 -33.5z" />
<glyph unicode="&#x201a;" horiz-adv-x="522" d="M80 -244q117 23 183.5 95t60.5 176q-33 -27 -84 -27q-47 0 -80 34t-33 81q0 55 36 90t93 35q78 0 125 -52.5t47 -146.5q0 -68 -23.5 -127t-68.5 -104.5t-109.5 -73t-146.5 -33.5v53z" />
<glyph unicode="&#x201c;" horiz-adv-x="960" d="M94 1149q0 68 23.5 127t68.5 104t109.5 73t146.5 34v-53q-117 -23 -183 -95t-60 -176q33 27 84 27q47 0 79.5 -34t32.5 -81q0 -55 -35.5 -90t-93.5 -35q-78 0 -125 52.5t-47 146.5zM532 1149q0 68 24 127t69 104t109.5 73t146.5 34v-53q-117 -23 -183.5 -95t-60.5 -176 q33 27 84 27q47 0 80 -34t33 -81q0 -55 -36 -90t-93 -35q-78 0 -125.5 52.5t-47.5 146.5z" />
<glyph unicode="&#x201d;" horiz-adv-x="960" d="M80 940v53q117 23 183.5 95t60.5 176q-33 -27 -84 -27q-47 0 -80 34t-33 81q0 55 36 90t93 35q78 0 125 -52.5t47 -146.5q0 -68 -23.5 -127t-68.5 -104.5t-109.5 -73t-146.5 -33.5zM520 940v53q117 23 183.5 95t60.5 176q-33 -27 -84 -27q-47 0 -80 34t-33 81q0 55 36 90 t93 35q78 0 125 -52.5t47 -146.5q0 -68 -23.5 -127t-68.5 -104.5t-109.5 -73t-146.5 -33.5z" />
<glyph unicode="&#x201e;" horiz-adv-x="960" d="M80 -244q117 23 183.5 95t60.5 176q-33 -27 -84 -27q-47 0 -80 34t-33 81q0 55 36 90t93 35q78 0 125 -52.5t47 -146.5q0 -68 -23.5 -127t-68.5 -104.5t-109.5 -73t-146.5 -33.5v53zM520 -244q117 23 183.5 95t60.5 176q-33 -27 -84 -27q-47 0 -80 34t-33 81q0 55 36 90 t93 35q78 0 125 -52.5t47 -146.5q0 -68 -23.5 -127t-68.5 -104.5t-109.5 -73t-146.5 -33.5v53z" />
<glyph unicode="&#x2022;" horiz-adv-x="718" d="M98 559q0 53 20.5 101.5t56.5 84t84 56t101 20.5t100.5 -20.5t83.5 -56t56.5 -84t20.5 -101.5t-20.5 -101t-56.5 -84t-83 -56.5t-101 -20.5q-53 0 -101 20.5t-84 56.5t-56.5 84t-20.5 101z" />
<glyph unicode="&#x2026;" horiz-adv-x="1488" d="M123 121q0 59 40 99t99 40q57 0 98 -40t41 -99t-41 -99t-98 -40q-59 0 -99 39.5t-40 99.5zM606 121q0 59 40 99t97 40q59 0 99.5 -40t40.5 -99t-40 -99t-100 -40q-57 0 -97 39.5t-40 99.5zM1087 121q0 59 41 99t99 40q57 0 98 -40t41 -99t-41 -99t-98 -40t-98.5 39.5 t-41.5 99.5z" />
<glyph unicode="&#x202f;" horiz-adv-x="389" />
<glyph unicode="&#x2039;" horiz-adv-x="778" d="M127 492v16q141 78 270 189.5t246 234.5h35q-66 -129 -147.5 -241.5t-147.5 -190.5q66 -78 147.5 -190.5t147.5 -241.5h-35q-117 123 -246 234.5t-270 189.5z" />
<glyph unicode="&#x203a;" horiz-adv-x="778" d="M100 68q66 129 148 241.5t147 190.5q-66 78 -147.5 190.5t-147.5 241.5h35q117 -123 246 -234.5t270 -189.5v-16q-141 -78 -270 -190t-246 -234h-35z" />
<glyph unicode="&#x205f;" horiz-adv-x="486" />
<glyph unicode="&#x20ac;" horiz-adv-x="1353" d="M61 555v74h152q-2 16 -2 32.5v32.5q0 27 1 52.5t3 50.5h-154v73h162q20 147 75.5 258t135.5 182.5t181.5 107.5t213.5 36q84 0 159 -21.5t132.5 -60.5t90 -94t32.5 -123q0 -86 -46 -128t-112 -42q-33 0 -71 16q23 16 40 50t17 102q0 96 -60.5 159.5t-179.5 63.5 q-164 0 -272 -128t-137 -378h434l-20 -73h-420q-2 -25 -3 -50.5t-1 -54.5v-31.5t2 -31.5h381l-21 -74h-354q14 -121 52 -206t92 -138t121 -79t140 -26q139 0 239.5 73t160.5 261l37 -10q-18 -121 -64.5 -206t-112 -139t-147.5 -79.5t-172 -25.5q-94 0 -185.5 34.5t-165 105 t-125.5 179.5t-71 256h-158z" />
<glyph unicode="&#x2122;" horiz-adv-x="1738" d="M94 1214l29 226q10 -4 21.5 -5t31.5 -1h475q23 0 34 1t22 5l26 -226h-18q-18 31 -33.5 61t-34 52.5t-41 36.5t-55.5 14h-74v-460q0 -45 19.5 -61.5t54.5 -35.5v-10h-275v10q35 18 55.5 34.5t20.5 62.5v460h-73q-33 0 -56.5 -14t-42 -36.5t-34 -52.5t-33.5 -61h-19z M803 811v10q31 20 48 34.5t17 59.5v414q0 45 -17 60.5t-48 35.5v9h225l178 -414l180 414h220v-9q-33 -20 -50.5 -35.5t-17.5 -60.5v-414q0 -45 17.5 -59t50.5 -35v-10h-260v10q31 20 49 34.5t18 59.5v439l-239 -553h-3l-239 553v-439q0 -45 17.5 -59t49.5 -35v-10h-196z" />
<glyph unicode="&#x25fc;" horiz-adv-x="993" d="M0 0v993h993v-993h-993z" />
<glyph unicode="&#xfb01;" horiz-adv-x="1257" d="M66 911v56l143 41v82q0 211 122 331.5t333 120.5q78 0 139 -17.5t104 -47t66.5 -67.5t23.5 -81q0 -59 -44 -93t-105 -34q-47 0 -74 10q35 37 35 107q0 59 -38 105t-134 46q-129 0 -189.5 -95t-60.5 -257v-123h682v-772q0 -51 6 -81.5t19.5 -52t36 -38t55.5 -37.5v-14 h-412v14q33 20 55.5 37t36 38.5t19.5 52t6 81.5v688h-504v-704q0 -45 9.5 -74t31 -48t57 -34.5t90.5 -34.5v-16h-483v14q33 20 55.5 37t36 38.5t19.5 52t6 81.5v688h-143z" />
<glyph unicode="&#xfb02;" horiz-adv-x="1257" d="M66 911v56l143 41v131q0 98 29.5 174t82 126t123 76.5t152.5 26.5q98 0 178 -34.5t127 -88.5l168 115v-1311q0 -51 6 -81.5t19.5 -52t36 -38t55.5 -37.5v-14h-412v14q33 20 55.5 37t36 38.5t19.5 52t6 81.5v985q0 49 -20.5 95.5t-56.5 82t-85 57t-108 21.5 q-117 0 -175.5 -82t-58.5 -223v-164h285l-10 -84h-275v-704q0 -45 9.5 -74t31 -48t57 -34.5t90.5 -34.5v-16h-483v14q33 20 55.5 37t36 38.5t19.5 52t6 81.5v688h-143z" />
<glyph unicode="&#xfb03;" horiz-adv-x="1939" d="M66 911v56l143 41v67q0 92 29.5 172t85 139.5t135.5 93t182 33.5q109 0 194 -37.5t140 -99.5q59 80 152.5 123t218.5 43q78 0 139 -17.5t104 -47t66.5 -67.5t23.5 -81q0 -59 -44 -93t-105 -34q-47 0 -74 10q35 41 35 107q0 59 -38 105t-134 46q-129 0 -189.5 -95 t-60.5 -257v-123h682v-772q0 -51 6 -81.5t19.5 -52t36 -38t55.5 -37.5v-14h-412v14q33 20 55.5 37t36 38.5t18.5 52t5 81.5v688h-502v-704q0 -45 9 -74t30.5 -48t57.5 -34.5t89 -34.5v-16h-481v14q33 20 55.5 37t36 38.5t19.5 52t6 81.5v688h-504v-704q0 -45 9.5 -74t31 -48 t57 -34.5t90.5 -34.5v-16h-483v14q33 20 55.5 37t36 38.5t19.5 52t6 81.5v688h-143zM387 995h504v95q0 74 14 131q-12 39 -35.5 77.5t-56.5 69.5t-76 50.5t-96 19.5q-125 0 -189.5 -91.5t-64.5 -242.5v-109z" />
<glyph unicode="&#xfb04;" horiz-adv-x="1939" d="M66 911v56l143 41v67q0 92 29.5 172t85 139.5t135.5 93t182 33.5t184 -33.5t138 -88.5q51 76 133 113.5t182 37.5q98 0 178 -34.5t127 -88.5l168 115v-1311q0 -51 6 -81.5t19.5 -52t36 -38t55.5 -37.5v-14h-412v14q33 20 55.5 37t36 38.5t18.5 52t5 81.5v985 q0 49 -19.5 95.5t-55.5 82t-85 57t-108 21.5q-117 0 -175.5 -82t-58.5 -223v-164h283l-11 -84h-272v-704q0 -45 9 -74t30.5 -48t57.5 -34.5t89 -34.5v-16h-481v14q33 20 55.5 37t36 38.5t19.5 52t6 81.5v688h-504v-704q0 -45 9.5 -74t31 -48t57 -34.5t90.5 -34.5v-16h-483 v14q33 20 55.5 37t36 38.5t19.5 52t6 81.5v688h-143zM387 995h504v144q0 57 8 98q-14 37 -36.5 74t-55.5 64.5t-74 45t-92 17.5q-125 0 -189.5 -91.5t-64.5 -242.5v-109z" />
</font>
</defs>
</svg>
